<svg version="1.1" id="Layer_1" xmlns="http://www.w3.org/2000/svg" xmlns:xlink="http://www.w3.org/1999/xlink" x="0px" y="0px"
	 width="100%" viewBox="0 0 2560 2560" enable-background="new 0 0 2560 2560" xml:space="preserve">
<path fill="#FFFFFF" opacity="1.000000" stroke="none" 
	d="
M1360.000000,2562.000000 
	C906.666687,2562.000000 454.333344,2562.000000 2.000000,2562.000000 
	C2.000000,1708.666626 2.000000,855.333313 2.000000,2.000000 
	C855.333313,2.000000 1708.666626,2.000000 2562.000000,2.000000 
	C2562.000000,855.333313 2562.000000,1708.666626 2562.000000,2562.000000 
	C2161.666748,2562.000000 1761.333374,2562.000000 1360.000000,2562.000000 
M1932.458130,2214.541504 
	C1979.606567,2261.697510 2026.745605,2308.863037 2073.919678,2355.993408 
	C2078.160889,2360.230713 2082.458008,2364.442627 2087.020508,2368.323486 
	C2120.803223,2397.062012 2171.445312,2399.697266 2207.927002,2374.717041 
	C2260.253418,2338.887695 2267.999756,2266.441406 2224.322998,2220.237793 
	C2215.166992,2210.552246 2205.547363,2201.304199 2196.118164,2191.877930 
	C2051.845459,2047.657471 1907.567383,1903.442017 1763.302124,1759.213989 
	C1760.566162,1756.479004 1757.967651,1753.606689 1755.035767,1750.514282 
	C1801.197021,1690.501587 1838.055664,1626.244995 1865.777222,1556.830566 
	C1893.494385,1487.427856 1911.137695,1415.529053 1918.920410,1341.190308 
	C1926.674072,1267.129150 1923.788696,1193.414551 1911.320801,1120.100098 
	C1898.793457,1046.435913 1876.201050,975.887512 1843.885376,908.487549 
	C1813.047852,844.170410 1741.613647,738.617798 1720.260376,725.497986 
	C1686.179321,790.216125 1652.088257,854.953552 1618.002808,919.692200 
	C1782.601929,1163.482788 1743.599731,1483.988403 1546.366089,1682.363892 
	C1356.047607,1873.784058 1063.592651,1913.425049 833.479858,1788.593384 
	C593.737915,1658.538086 473.255768,1392.705200 530.321960,1128.532715 
	C558.569458,997.768555 624.561890,888.292847 725.908997,801.528687 
	C865.520630,682.005920 1028.301514,638.588074 1209.937622,661.671570 
	C1196.734131,627.153320 1183.306641,593.487244 1170.981323,559.422424 
	C1158.642456,525.320435 1149.166626,490.351410 1143.904663,454.609375 
	C861.530823,440.997650 546.024353,593.113770 392.690308,910.751953 
	C246.929306,1212.702271 304.899261,1585.176636 551.549622,1828.452393 
	C675.973389,1951.173706 824.197815,2028.052979 997.211548,2053.219482 
	C1223.627808,2086.153564 1428.790161,2032.027832 1612.286499,1894.517090 
	C1718.880981,2001.062622 1825.169556,2107.302002 1932.458130,2214.541504 
M1783.232910,385.917389 
	C1772.343750,329.993896 1748.330200,280.449982 1710.050415,238.223022 
	C1653.206055,175.517303 1582.301270,140.923477 1497.780151,136.253662 
	C1415.967529,131.733521 1343.182861,156.400208 1280.801025,209.594452 
	C1223.591187,258.378510 1189.057861,320.509399 1176.643677,394.668457 
	C1173.402710,414.030182 1170.867798,433.615265 1172.809448,453.358673 
	C1175.524414,480.964203 1181.443237,507.924408 1189.466431,534.467651 
	C1206.086426,589.451599 1228.125977,642.317932 1252.223022,694.337830 
	C1312.522949,824.510681 1382.520142,949.462158 1456.555420,1072.218018 
	C1458.267456,1075.057007 1460.285767,1077.751831 1462.438110,1080.277954 
	C1471.925903,1091.413086 1485.056763,1090.761841 1493.420776,1078.643433 
	C1496.822754,1073.714233 1499.724854,1068.441162 1502.877563,1063.338745 
	C1571.740479,951.883545 1636.975830,838.395325 1694.583008,720.647949 
	C1722.857666,662.854858 1749.217773,604.230103 1769.051636,542.907593 
	C1778.288208,514.349915 1786.354126,485.446350 1788.191528,455.272034 
	C1789.575562,432.544708 1787.438721,409.997650 1783.232910,385.917389 
z"/>
<path fill="#415984" opacity="1.000000" stroke="none" 
	d="
M1931.958008,2214.041504 
	C1825.169556,2107.302002 1718.880981,2001.062622 1612.286499,1894.517090 
	C1428.790161,2032.027832 1223.627808,2086.153564 997.211548,2053.219482 
	C824.197815,2028.052979 675.973389,1951.173706 551.549622,1828.452393 
	C304.899261,1585.176636 246.929306,1212.702271 392.690308,910.751953 
	C546.024353,593.113770 861.530823,440.997650 1143.904663,454.609375 
	C1149.166626,490.351410 1158.642456,525.320435 1170.981323,559.422424 
	C1183.306641,593.487244 1196.734131,627.153320 1209.937622,661.671570 
	C1028.301514,638.588074 865.520630,682.005920 725.908997,801.528687 
	C624.561890,888.292847 558.569458,997.768555 530.321960,1128.532715 
	C473.255768,1392.705200 593.737915,1658.538086 833.479858,1788.593384 
	C1063.592651,1913.425049 1356.047607,1873.784058 1546.366089,1682.363892 
	C1743.599731,1483.988403 1782.601929,1163.482788 1618.000000,919.691589 
	C1652.088257,854.953552 1686.179321,790.216125 1720.260376,725.497986 
	C1741.613647,738.617798 1813.047852,844.170410 1843.885376,908.487549 
	C1876.201050,975.887512 1898.793457,1046.435913 1911.320801,1120.100098 
	C1923.788696,1193.414551 1926.674072,1267.129150 1918.920410,1341.190308 
	C1911.137695,1415.529053 1893.494385,1487.427856 1865.777222,1556.830566 
	C1838.055664,1626.244995 1801.197021,1690.501587 1755.035767,1750.514282 
	C1757.967651,1753.606689 1760.566162,1756.479004 1763.302124,1759.213989 
	C1907.567383,1903.442017 2051.845459,2047.657471 2196.118164,2191.877930 
	C2205.547363,2201.304199 2215.166992,2210.552246 2224.322998,2220.237793 
	C2267.999756,2266.441406 2260.253418,2338.887695 2207.927002,2374.717041 
	C2171.445312,2399.697266 2120.803223,2397.062012 2087.020508,2368.323486 
	C2082.458008,2364.442627 2078.160889,2360.230713 2073.919678,2355.993408 
	C2026.745605,2308.863037 1979.606567,2261.697510 1931.958008,2214.041504 
z"/>
<path fill="#415984" opacity="1.000000" stroke="none" 
	d="
M1783.399658,386.758026 
	C1787.438721,409.997650 1789.575562,432.544708 1788.191528,455.272034 
	C1786.354126,485.446350 1778.288208,514.349915 1769.051636,542.907593 
	C1749.217773,604.230103 1722.857666,662.854858 1694.583008,720.647949 
	C1636.975830,838.395325 1571.740479,951.883545 1502.877563,1063.338745 
	C1499.724854,1068.441162 1496.822754,1073.714233 1493.420776,1078.643433 
	C1485.056763,1090.761841 1471.925903,1091.413086 1462.438110,1080.277954 
	C1460.285767,1077.751831 1458.267456,1075.057007 1456.555420,1072.218018 
	C1382.520142,949.462158 1312.522949,824.510681 1252.223022,694.337830 
	C1228.125977,642.317932 1206.086426,589.451599 1189.466431,534.467651 
	C1181.443237,507.924408 1175.524414,480.964203 1172.809448,453.358673 
	C1170.867798,433.615265 1173.402710,414.030182 1176.643677,394.668457 
	C1189.057861,320.509399 1223.591187,258.378510 1280.801025,209.594452 
	C1343.182861,156.400208 1415.967529,131.733521 1497.780151,136.253662 
	C1582.301270,140.923477 1653.206055,175.517303 1710.050415,238.223022 
	C1748.330200,280.449982 1772.343750,329.993896 1783.399658,386.758026 
M1580.219238,388.900757 
	C1557.886230,347.803619 1523.401001,326.112732 1476.572144,326.080017 
	C1406.349731,326.030975 1352.872925,390.165588 1364.624390,459.361725 
	C1377.668335,536.167847 1460.847534,578.089050 1530.293457,542.609192 
	C1584.017822,515.161438 1609.043579,449.857239 1580.219238,388.900757 
z"/>
<path fill="#FEFEFE" opacity="1.000000" stroke="none" 
	d="
M1580.561523,389.570679 
	C1609.043579,449.857239 1584.017822,515.161438 1530.293457,542.609192 
	C1460.847534,578.089050 1377.668335,536.167847 1364.624390,459.361725 
	C1352.872925,390.165588 1406.349731,326.030975 1476.572144,326.080017 
	C1523.401001,326.112732 1557.886230,347.803619 1580.561523,389.570679 
z"/>
</svg>