<?xml version="1.0" encoding="utf-8"?>
<!-- Generator: Adobe Illustrator 26.5.0, SVG Export Plug-In . SVG Version: 6.00 Build 0)  -->
<svg version="1.1" xmlns="http://www.w3.org/2000/svg" xmlns:xlink="http://www.w3.org/1999/xlink" x="0px" y="0px"
	 viewBox="0 0 120 120" style="enable-background:new 0 0 120 120;" xml:space="preserve">
<style type="text/css">
	.st0{display:none;}
	.st1{display:inline;fill:#FFFFFF;}
	.st2{fill:#405884;stroke:#405884;stroke-width:3;stroke-miterlimit:10;}
</style>
<g id="Layer_1" class="st0">
</g>
<g id="Layer_4" class="st0">
	<rect x="-18.57" y="16.97" class="st1" width="182.48" height="143.67"/>
</g>
<g id="Layer_2">
	<line class="st2" x1="90.11" y1="11.61" x2="90.15" y2="37.37"/>
	<line class="st2" x1="9.46" y1="44.72" x2="63.05" y2="44.72"/>
	<line class="st2" x1="62.06" y1="35.88" x2="90.46" y2="35.88"/>
	<line class="st2" x1="63.54" y1="35.63" x2="63.54" y2="45.21"/>
	<line class="st2" x1="44.72" y1="107.32" x2="44.72" y2="93.58"/>
	<line class="st2" x1="64.43" y1="93.27" x2="44.9" y2="93.27"/>
	<line class="st2" x1="62.96" y1="71.96" x2="62.96" y2="93.68"/>
	<line class="st2" x1="82.78" y1="71.96" x2="62.18" y2="71.96"/>
	<line class="st2" x1="63.55" y1="44.58" x2="63.55" y2="72.16"/>
	<line class="st2" x1="81.29" y1="72.05" x2="81.29" y2="61.23"/>
	<line class="st2" x1="107.22" y1="62.72" x2="81.29" y2="62.72"/>
	<line class="st2" x1="8.96" y1="60.15" x2="24.4" y2="44.72"/>
	<line class="st2" x1="8.96" y1="67.97" x2="32.25" y2="44.69"/>
	<line class="st2" x1="8.96" y1="51.46" x2="15.79" y2="44.63"/>
	<line class="st2" x1="8.96" y1="77.11" x2="41.41" y2="44.67"/>
	<line class="st2" x1="8.96" y1="86.03" x2="50.3" y2="44.69"/>
	<line class="st2" x1="9.08" y1="95.49" x2="59.72" y2="44.85"/>
	<line class="st2" x1="8.96" y1="102.87" x2="63.47" y2="48.36"/>
	<line class="st2" x1="14.06" y1="107.02" x2="63.4" y2="57.68"/>
	<line class="st2" x1="22.17" y1="107.06" x2="63.51" y2="65.72"/>
	<line class="st2" x1="31.31" y1="106.94" x2="63.13" y2="75.13"/>
	<line class="st2" x1="51.57" y1="93.27" x2="62.94" y2="81.89"/>
	<line class="st2" x1="37.74" y1="106.9" x2="44.81" y2="99.83"/>
</g>
<g id="Layer_3">
	<line class="st2" x1="42.84" y1="26.95" x2="7.58" y2="26.95"/>
	<line class="st2" x1="41.33" y1="26.5" x2="41.26" y2="11.66"/>
	<line class="st2" x1="39.76" y1="12.15" x2="108.5" y2="12.15"/>
	<line class="st2" x1="9.09" y1="26.44" x2="9.09" y2="108.42"/>
	<line class="st2" x1="107" y1="12.15" x2="107" y2="107.27"/>
	<line class="st2" x1="8.59" y1="106.92" x2="108.49" y2="106.92"/>
</g>
</svg>
