<svg version="1.1" id="Layer_1" xmlns="http://www.w3.org/2000/svg" xmlns:xlink="http://www.w3.org/1999/xlink" x="0px" y="0px"
	 width="100%" viewBox="0 0 2560 2560" enable-background="new 0 0 2560 2560" xml:space="preserve">
<path fill="#FFFFFF" opacity="1.000000" stroke="none" 
	d="
M2562.000000,976.000000 
	C2562.000000,1505.333252 2562.000000,2033.666504 2562.000000,2562.000000 
	C1708.666870,2562.000000 855.333801,2562.000000 2.000556,2562.000000 
	C2.000371,1708.667114 2.000371,855.334106 2.000185,2.000900 
	C855.332764,2.000600 1708.665527,2.000600 2561.999023,2.000300 
	C2562.000000,326.333344 2562.000000,650.666687 2562.000000,976.000000 
M754.326660,1660.672974 
	C782.811829,1688.275757 810.933167,1716.266357 839.857056,1743.401611 
	C902.081726,1801.778442 964.965393,1859.453491 1027.128052,1917.895752 
	C1110.950317,1996.701416 1191.960449,2078.267090 1266.846802,2165.734863 
	C1269.108154,2168.375977 1271.332520,2171.048828 1275.014648,2175.415283 
	C1268.697754,2175.415283 1264.807983,2175.415283 1260.918213,2175.415283 
	C1022.930481,2175.415283 784.942688,2175.413818 546.954956,2175.425049 
	C541.289917,2175.425293 535.624084,2175.531250 529.959900,2175.646484 
	C466.269318,2176.941650 400.421844,2234.635498 412.788147,2318.622070 
	C419.384369,2363.420898 445.315582,2395.135254 486.660400,2413.833740 
	C504.605072,2421.949219 523.647827,2424.079346 543.230347,2424.073486 
	C916.544434,2423.960693 1289.858521,2423.990234 1663.172607,2423.990234 
	C1802.832153,2423.990234 1942.491577,2424.024414 2082.151123,2423.911865 
	C2091.445801,2423.904297 2100.860596,2423.533203 2110.013916,2422.057129 
	C2167.298340,2412.821289 2211.924805,2363.074707 2214.031250,2306.579590 
	C2216.298828,2245.769531 2177.667480,2193.018066 2119.731689,2179.219482 
	C2107.255615,2176.248047 2093.989502,2175.577637 2081.085693,2175.566162 
	C1846.098022,2175.359131 1611.110229,2175.415039 1376.122314,2175.415039 
	C1372.263062,2175.415039 1368.403687,2175.415039 1363.042236,2175.415039 
	C1365.119019,2172.282227 1366.005371,2170.611328 1367.199097,2169.200195 
	C1373.871216,2161.312012 1380.547119,2153.425049 1387.349243,2145.649658 
	C1468.441040,2052.952881 1556.712402,1967.349243 1646.511719,1883.247803 
	C1716.084106,1818.089722 1786.019531,1753.308350 1854.886108,1687.411255 
	C1917.054688,1627.923340 1976.032593,1565.359131 2029.325439,1497.629395 
	C2081.903076,1430.808472 2127.166504,1359.583252 2160.435547,1281.085327 
	C2205.867920,1173.888062 2226.142090,1062.065552 2222.342773,945.756348 
	C2221.232178,911.755920 2218.745850,877.903809 2214.226074,844.180054 
	C2203.541016,764.453552 2182.415771,687.587524 2150.797363,613.668701 
	C2096.850830,487.550293 2018.302368,379.157654 1915.437012,288.380981 
	C1835.668945,217.987518 1746.251465,163.266602 1647.191528,124.672302 
	C1528.894531,78.583069 1406.213501,58.075741 1279.222412,63.736927 
	C1216.078979,66.551819 1153.867065,75.466644 1092.742798,91.422371 
	C932.324280,133.297714 793.630615,213.264023 676.755615,330.728851 
	C581.984863,425.977905 512.031921,537.139648 466.658325,663.629150 
	C437.445374,745.066956 420.673859,829.073975 415.806305,915.473511 
	C413.533508,955.816833 414.662445,996.090759 417.633850,1036.339111 
	C422.192169,1098.083130 434.007996,1158.427124 453.088196,1217.322388 
	C480.755066,1302.722534 522.732544,1380.768921 574.716187,1453.676147 
	C627.719910,1528.013794 688.976013,1595.181396 754.326660,1660.672974 
z"/>
<path fill="#415984" opacity="1.000000" stroke="none" 
	d="
M753.826599,1660.173096 
	C688.976013,1595.181396 627.719910,1528.013794 574.716187,1453.676147 
	C522.732544,1380.768921 480.755066,1302.722534 453.088196,1217.322388 
	C434.007996,1158.427124 422.192169,1098.083130 417.633850,1036.339111 
	C414.662445,996.090759 413.533508,955.816833 415.806305,915.473511 
	C420.673859,829.073975 437.445374,745.066956 466.658325,663.629150 
	C512.031921,537.139648 581.984863,425.977905 676.755615,330.728851 
	C793.630615,213.264023 932.324280,133.297714 1092.742798,91.422371 
	C1153.867065,75.466644 1216.078979,66.551819 1279.222412,63.736927 
	C1406.213501,58.075741 1528.894531,78.583069 1647.191528,124.672302 
	C1746.251465,163.266602 1835.668945,217.987518 1915.437012,288.380981 
	C2018.302368,379.157654 2096.850830,487.550293 2150.797363,613.668701 
	C2182.415771,687.587524 2203.541016,764.453552 2214.226074,844.180054 
	C2218.745850,877.903809 2221.232178,911.755920 2222.342773,945.756348 
	C2226.142090,1062.065552 2205.867920,1173.888062 2160.435547,1281.085327 
	C2127.166504,1359.583252 2081.903076,1430.808472 2029.325439,1497.629395 
	C1976.032593,1565.359131 1917.054688,1627.923340 1854.886108,1687.411255 
	C1786.019531,1753.308350 1716.084106,1818.089722 1646.511719,1883.247803 
	C1556.712402,1967.349243 1468.441040,2052.952881 1387.349243,2145.649658 
	C1380.547119,2153.425049 1373.871216,2161.312012 1367.199097,2169.200195 
	C1366.005371,2170.611328 1365.119019,2172.282227 1363.042236,2175.415039 
	C1368.403687,2175.415039 1372.263062,2175.415039 1376.122314,2175.415039 
	C1611.110229,2175.415039 1846.098022,2175.359131 2081.085693,2175.566162 
	C2093.989502,2175.577637 2107.255615,2176.248047 2119.731689,2179.219482 
	C2177.667480,2193.018066 2216.298828,2245.769531 2214.031250,2306.579590 
	C2211.924805,2363.074707 2167.298340,2412.821289 2110.013916,2422.057129 
	C2100.860596,2423.533203 2091.445801,2423.904297 2082.151123,2423.911865 
	C1942.491577,2424.024414 1802.832153,2423.990234 1663.172607,2423.990234 
	C1289.858521,2423.990234 916.544434,2423.960693 543.230347,2424.073486 
	C523.647827,2424.079346 504.605072,2421.949219 486.660400,2413.833740 
	C445.315582,2395.135254 419.384369,2363.420898 412.788147,2318.622070 
	C400.421844,2234.635498 466.269318,2176.941650 529.959900,2175.646484 
	C535.624084,2175.531250 541.289917,2175.425293 546.954956,2175.425049 
	C784.942688,2175.413818 1022.930481,2175.415283 1260.918213,2175.415283 
	C1264.807983,2175.415283 1268.697754,2175.415283 1275.014648,2175.415283 
	C1271.332520,2171.048828 1269.108154,2168.375977 1266.846802,2165.734863 
	C1191.960449,2078.267090 1110.950317,1996.701416 1027.128052,1917.895752 
	C964.965393,1859.453491 902.081726,1801.778442 839.857056,1743.401611 
	C810.933167,1716.266357 782.811829,1688.275757 753.826599,1660.173096 
M833.031067,1551.984619 
	C836.398621,1554.707397 839.743408,1557.458984 843.136963,1560.148926 
	C997.020020,1682.124756 1171.955688,1737.752197 1368.032227,1726.389160 
	C1439.009766,1722.275757 1507.949585,1707.762451 1574.739624,1683.503418 
	C1712.298706,1633.539917 1826.856812,1551.149292 1916.431396,1435.563843 
	C2028.541016,1290.900024 2082.745850,1126.756226 2076.330322,943.214478 
	C2075.011963,905.502380 2071.300537,868.080811 2064.152344,831.050354 
	C2028.768799,647.755493 1938.593994,496.825531 1793.817993,379.348633 
	C1668.676636,277.804047 1524.612671,222.899261 1363.853271,212.710861 
	C1295.372437,208.370804 1227.366943,213.427826 1160.134644,227.975861 
	C1039.317627,254.118820 931.044067,306.287384 835.938171,385.095947 
	C732.691650,470.650177 656.853271,576.185181 608.974060,701.601807 
	C583.373718,768.659973 568.096985,838.056091 562.231689,909.540405 
	C558.733704,952.172791 560.021851,994.771301 563.628235,1037.346313 
	C568.258911,1092.013428 578.919617,1145.483032 595.583008,1197.722168 
	C640.394958,1338.206177 719.765259,1455.623413 833.031067,1551.984619 
z"/>
<path fill="#FEFEFE" opacity="1.000000" stroke="none" 
	d="
M832.492615,1551.522461 
	C719.765259,1455.623413 640.394958,1338.206177 595.583008,1197.722168 
	C578.919617,1145.483032 568.258911,1092.013428 563.628235,1037.346313 
	C560.021851,994.771301 558.733704,952.172791 562.231689,909.540405 
	C568.096985,838.056091 583.373718,768.659973 608.974060,701.601807 
	C656.853271,576.185181 732.691650,470.650177 835.938171,385.095947 
	C931.044067,306.287384 1039.317627,254.118820 1160.134644,227.975861 
	C1227.366943,213.427826 1295.372437,208.370804 1363.853271,212.710861 
	C1524.612671,222.899261 1668.676636,277.804047 1793.817993,379.348633 
	C1938.593994,496.825531 2028.768799,647.755493 2064.152344,831.050354 
	C2071.300537,868.080811 2075.011963,905.502380 2076.330322,943.214478 
	C2082.745850,1126.756226 2028.541016,1290.900024 1916.431396,1435.563843 
	C1826.856812,1551.149292 1712.298706,1633.539917 1574.739624,1683.503418 
	C1507.949585,1707.762451 1439.009766,1722.275757 1368.032227,1726.389160 
	C1171.955688,1737.752197 997.020020,1682.124756 843.136963,1560.148926 
	C839.743408,1557.458984 836.398621,1554.707397 832.492615,1551.522461 
M1723.449585,1234.979736 
	C1723.449585,1057.109863 1723.449585,879.240051 1723.449585,700.900391 
	C1445.565552,700.900391 1169.070679,700.900391 891.952148,700.900391 
	C891.952148,888.171631 891.952148,1074.921387 891.952148,1262.087402 
	C981.766235,1262.087402 1070.935303,1262.087402 1161.208618,1262.087402 
	C1161.208618,1257.977783 1161.208740,1254.389160 1161.208496,1250.800415 
	C1161.204834,1198.467773 1161.082520,1146.134644 1161.308350,1093.802979 
	C1161.348389,1084.526367 1162.068848,1075.111328 1163.782471,1066.006226 
	C1175.764526,1002.343506 1230.343018,953.422607 1294.645630,948.287109 
	C1360.793945,943.004272 1421.953491,982.158752 1444.348022,1043.957642 
	C1450.910278,1062.066406 1453.471436,1080.792603 1453.520508,1099.891602 
	C1453.649536,1150.223877 1453.566284,1200.556763 1453.567505,1250.889404 
	C1453.567627,1254.455933 1453.567505,1258.022461 1453.567505,1262.087402 
	C1543.883667,1262.087402 1633.054688,1262.087402 1723.449341,1262.087402 
	C1723.449341,1253.448975 1723.449341,1245.209961 1723.449585,1234.979736 
M1485.000122,1285.325684 
	C1271.160767,1285.325684 1057.321411,1285.325684 842.995300,1285.325684 
	C830.516785,1322.837402 818.265381,1359.666626 805.773743,1397.217773 
	C1140.423584,1397.217773 1473.964844,1397.217773 1808.704468,1397.217773 
	C1796.142090,1359.484741 1783.884521,1322.666992 1771.452393,1285.325195 
	C1676.153931,1285.325195 1581.577148,1285.325195 1485.000122,1285.325684 
M1404.848389,1018.250549 
	C1402.234375,1015.225403 1399.788208,1012.034180 1396.980835,1009.200623 
	C1364.416748,976.333313 1325.167480,963.694336 1280.100098,973.783630 
	C1222.267212,986.730835 1184.294189,1034.828003 1183.784790,1094.305542 
	C1183.325073,1147.967773 1183.664917,1201.636963 1183.702759,1255.303101 
	C1183.704346,1257.517456 1184.219727,1259.731689 1184.477905,1261.802002 
	C1203.295288,1263.987549 1423.519775,1263.051636 1430.392578,1260.812378 
	C1430.510864,1259.845703 1430.737549,1258.855835 1430.737915,1257.865967 
	C1430.757080,1202.866821 1430.925171,1147.866943 1430.687744,1092.868896 
	C1430.570435,1065.708984 1422.053955,1041.156982 1404.848389,1018.250549 
M1211.000000,610.408813 
	C1089.764160,610.408813 968.528381,610.408813 846.716492,610.408813 
	C846.716492,633.282227 846.716492,655.075378 846.716492,677.339478 
	C1153.911499,677.339478 1460.649658,677.339478 1767.465210,677.339478 
	C1767.465210,654.856750 1767.465210,633.061401 1767.465210,610.409058 
	C1582.183716,610.409058 1397.591797,610.409058 1211.000000,610.408813 
M1566.989258,588.077026 
	C1577.114014,588.077026 1587.238892,588.077026 1598.765991,588.077026 
	C1596.967896,585.062256 1596.275635,583.621887 1595.335571,582.367310 
	C1581.347534,563.699768 1567.175903,545.166992 1553.421265,526.329468 
	C1550.042236,521.701721 1546.271606,520.385742 1540.818237,520.389771 
	C1385.166504,520.505859 1229.514526,520.513916 1073.862793,520.366150 
	C1067.922852,520.360535 1064.036865,522.155273 1060.534790,526.938843 
	C1047.150024,545.221680 1033.399170,563.236389 1019.841492,581.393311 
	C1018.555725,583.115356 1017.664612,585.132080 1015.981445,588.077087 
	C1199.837646,588.077087 1382.415894,588.077087 1566.989258,588.077026 
z"/>
<path fill="#415985" opacity="1.000000" stroke="none" 
	d="
M1723.449463,1235.975342 
	C1723.449341,1245.209961 1723.449341,1253.448975 1723.449341,1262.087402 
	C1633.054688,1262.087402 1543.883667,1262.087402 1453.567505,1262.087402 
	C1453.567505,1258.022461 1453.567627,1254.455933 1453.567505,1250.889404 
	C1453.566284,1200.556763 1453.649536,1150.223877 1453.520508,1099.891602 
	C1453.471436,1080.792603 1450.910278,1062.066406 1444.348022,1043.957642 
	C1421.953491,982.158752 1360.793945,943.004272 1294.645630,948.287109 
	C1230.343018,953.422607 1175.764526,1002.343506 1163.782471,1066.006226 
	C1162.068848,1075.111328 1161.348389,1084.526367 1161.308350,1093.802979 
	C1161.082520,1146.134644 1161.204834,1198.467773 1161.208496,1250.800415 
	C1161.208740,1254.389160 1161.208618,1257.977783 1161.208618,1262.087402 
	C1070.935303,1262.087402 981.766235,1262.087402 891.952148,1262.087402 
	C891.952148,1074.921387 891.952148,888.171631 891.952148,700.900391 
	C1169.070679,700.900391 1445.565552,700.900391 1723.449585,700.900391 
	C1723.449585,879.240051 1723.449585,1057.109863 1723.449463,1235.975342 
M1256.442261,767.998291 
	C1229.783203,767.998474 1203.124023,767.936218 1176.465332,768.027222 
	C1164.580688,768.067871 1160.969482,771.654663 1160.922974,783.584106 
	C1160.816650,810.909180 1160.787231,838.235596 1160.937744,865.560303 
	C1161.000610,876.983337 1164.526978,880.341614 1176.094482,880.381653 
	C1203.419678,880.476257 1230.745605,880.469788 1258.070801,880.382141 
	C1270.026611,880.343811 1273.558350,876.824707 1273.600098,864.857849 
	C1273.694092,837.865906 1273.697144,810.873169 1273.596191,783.881226 
	C1273.551147,771.861084 1270.474121,768.837341 1256.442261,767.998291 
M1453.605957,830.999634 
	C1453.598877,814.676819 1453.759521,798.351501 1453.522583,782.032043 
	C1453.378540,772.114319 1449.303101,768.098999 1439.406616,768.050781 
	C1411.092285,767.912659 1382.775879,767.892944 1354.461914,768.068359 
	C1345.067627,768.126587 1341.003174,772.131897 1340.937012,781.544617 
	C1340.737915,809.858337 1340.736694,838.175171 1340.925537,866.488953 
	C1340.993530,876.680847 1344.768433,880.308716 1354.977051,880.359802 
	C1382.958252,880.499817 1410.941162,880.489014 1438.922607,880.371277 
	C1449.614380,880.326233 1453.380615,876.560364 1453.557251,865.977417 
	C1453.740479,854.987488 1453.603027,843.992249 1453.605957,830.999634 
M1520.655029,821.000122 
	C1520.662476,836.327087 1520.462769,851.657898 1520.753296,866.979492 
	C1520.934448,876.539246 1524.788940,880.310486 1534.319946,880.364319 
	C1562.640503,880.524109 1590.963257,880.512878 1619.284058,880.371155 
	C1629.367310,880.320618 1633.344482,876.497192 1633.412354,866.476074 
	C1633.601807,838.489014 1633.587280,810.499084 1633.418823,782.511780 
	C1633.355103,771.938721 1629.365479,768.076233 1618.776489,768.029236 
	C1591.121826,767.906555 1563.465942,767.917236 1535.811157,768.018921 
	C1524.553467,768.060303 1520.859497,771.763000 1520.704224,783.015686 
	C1520.538818,795.008484 1520.659668,807.005249 1520.655029,821.000122 
M981.309448,805.006897 
	C981.313599,825.648071 981.188293,846.290405 981.378235,866.929810 
	C981.468811,876.761108 984.919067,880.279358 994.664490,880.334534 
	C1023.294800,880.496704 1051.927368,880.499878 1080.557495,880.318665 
	C1089.426392,880.262512 1093.571167,876.262207 1093.635742,867.497559 
	C1093.846558,838.867859 1093.843262,810.234863 1093.644409,781.604980 
	C1093.579346,772.248047 1089.422119,768.142090 1080.109985,768.084778 
	C1051.479858,767.908508 1022.846985,767.894775 994.217163,768.095520 
	C985.261414,768.158325 981.654724,772.054993 981.371826,781.040771 
	C981.141418,788.357971 981.314697,795.687805 981.309448,805.006897 
z"/>
<path fill="#415985" opacity="1.000000" stroke="none" 
	d="
M1486.000244,1285.325439 
	C1581.577148,1285.325195 1676.153931,1285.325195 1771.452393,1285.325195 
	C1783.884521,1322.666992 1796.142090,1359.484741 1808.704468,1397.217773 
	C1473.964844,1397.217773 1140.423584,1397.217773 805.773743,1397.217773 
	C818.265381,1359.666626 830.516785,1322.837402 842.995300,1285.325684 
	C1057.321411,1285.325684 1271.160767,1285.325684 1486.000244,1285.325439 
z"/>
<path fill="#405884" opacity="1.000000" stroke="none" 
	d="
M1405.289307,1018.814392 
	C1422.053955,1041.156982 1430.570435,1065.708984 1430.687744,1092.868896 
	C1430.925171,1147.866943 1430.757080,1202.866821 1430.737915,1257.865967 
	C1430.737549,1258.855835 1430.510864,1259.845703 1430.392578,1260.812378 
	C1423.519775,1263.051636 1203.295288,1263.987549 1184.477905,1261.802002 
	C1184.219727,1259.731689 1183.704346,1257.517456 1183.702759,1255.303101 
	C1183.664917,1201.636963 1183.325073,1147.967773 1183.784790,1094.305542 
	C1184.294189,1034.828003 1222.267212,986.730835 1280.100098,973.783630 
	C1325.167480,963.694336 1364.416748,976.333313 1396.980835,1009.200623 
	C1399.788208,1012.034180 1402.234375,1015.225403 1405.289307,1018.814392 
z"/>
<path fill="#435A86" opacity="1.000000" stroke="none" 
	d="
M1212.000000,610.408936 
	C1397.591797,610.409058 1582.183716,610.409058 1767.465210,610.409058 
	C1767.465210,633.061401 1767.465210,654.856750 1767.465210,677.339478 
	C1460.649658,677.339478 1153.911499,677.339478 846.716492,677.339478 
	C846.716492,655.075378 846.716492,633.282227 846.716492,610.408813 
	C968.528381,610.408813 1089.764160,610.408813 1212.000000,610.408936 
z"/>
<path fill="#435A86" opacity="1.000000" stroke="none" 
	d="
M1565.991699,588.077026 
	C1382.415894,588.077087 1199.837646,588.077087 1015.981445,588.077087 
	C1017.664612,585.132080 1018.555725,583.115356 1019.841492,581.393311 
	C1033.399170,563.236389 1047.150024,545.221680 1060.534790,526.938843 
	C1064.036865,522.155273 1067.922852,520.360535 1073.862793,520.366150 
	C1229.514526,520.513916 1385.166504,520.505859 1540.818237,520.389771 
	C1546.271606,520.385742 1550.042236,521.701721 1553.421265,526.329468 
	C1567.175903,545.166992 1581.347534,563.699768 1595.335571,582.367310 
	C1596.275635,583.621887 1596.967896,585.062256 1598.765991,588.077026 
	C1587.238892,588.077026 1577.114014,588.077026 1565.991699,588.077026 
z"/>
<path fill="#F9FAFB" opacity="1.000000" stroke="none" 
	d="
M1257.362549,767.999390 
	C1270.474121,768.837341 1273.551147,771.861084 1273.596191,783.881226 
	C1273.697144,810.873169 1273.694092,837.865906 1273.600098,864.857849 
	C1273.558350,876.824707 1270.026611,880.343811 1258.070801,880.382141 
	C1230.745605,880.469788 1203.419678,880.476257 1176.094482,880.381653 
	C1164.526978,880.341614 1161.000610,876.983337 1160.937744,865.560303 
	C1160.787231,838.235596 1160.816650,810.909180 1160.922974,783.584106 
	C1160.969482,771.654663 1164.580688,768.067871 1176.465332,768.027222 
	C1203.124023,767.936218 1229.783203,767.998474 1257.362549,767.999390 
M1183.700439,848.705261 
	C1183.930054,851.559021 1184.159790,854.412781 1184.393188,857.313232 
	C1206.753174,857.313232 1228.258057,857.313232 1250.187500,857.313232 
	C1250.187500,834.948975 1250.187500,813.166992 1250.187500,791.499390 
	C1239.041138,789.573303 1191.387939,789.920105 1183.700195,792.032288 
	C1183.700195,810.157593 1183.700195,828.458252 1183.700439,848.705261 
z"/>
<path fill="#F9FAFB" opacity="1.000000" stroke="none" 
	d="
M1453.605835,831.999512 
	C1453.603027,843.992249 1453.740479,854.987488 1453.557251,865.977417 
	C1453.380615,876.560364 1449.614380,880.326233 1438.922607,880.371277 
	C1410.941162,880.489014 1382.958252,880.499817 1354.977051,880.359802 
	C1344.768433,880.308716 1340.993530,876.680847 1340.925537,866.488953 
	C1340.736694,838.175171 1340.737915,809.858337 1340.937012,781.544617 
	C1341.003174,772.131897 1345.067627,768.126587 1354.461914,768.068359 
	C1382.775879,767.892944 1411.092285,767.912659 1439.406616,768.050781 
	C1449.303101,768.098999 1453.378540,772.114319 1453.522583,782.032043 
	C1453.759521,798.351501 1453.598877,814.676819 1453.605835,831.999512 
M1363.652344,848.713562 
	C1363.884521,851.565063 1364.116699,854.416565 1364.352295,857.311340 
	C1386.718140,857.311340 1408.221191,857.311340 1430.139404,857.311340 
	C1430.139404,834.945679 1430.139404,813.163086 1430.139404,791.492676 
	C1418.889038,789.564331 1371.321899,789.924011 1363.652344,792.052856 
	C1363.652344,810.168640 1363.652344,828.466980 1363.652344,848.713562 
z"/>
<path fill="#F7F8FA" opacity="1.000000" stroke="none" 
	d="
M1520.655273,820.000183 
	C1520.659668,807.005249 1520.538818,795.008484 1520.704224,783.015686 
	C1520.859497,771.763000 1524.553467,768.060303 1535.811157,768.018921 
	C1563.465942,767.917236 1591.121826,767.906555 1618.776489,768.029236 
	C1629.365479,768.076233 1633.355103,771.938721 1633.418823,782.511780 
	C1633.587280,810.499084 1633.601807,838.489014 1633.412354,866.476074 
	C1633.344482,876.497192 1629.367310,880.320618 1619.284058,880.371155 
	C1590.963257,880.512878 1562.640503,880.524109 1534.319946,880.364319 
	C1524.788940,880.310486 1520.934448,876.539246 1520.753296,866.979492 
	C1520.462769,851.657898 1520.662476,836.327087 1520.655273,820.000183 
M1586.959961,790.335449 
	C1572.746460,790.335449 1558.533081,790.335449 1544.242188,790.335449 
	C1544.242188,813.469849 1544.242188,835.256104 1544.242188,857.373169 
	C1566.438477,857.373169 1587.935913,857.373169 1610.057373,857.373169 
	C1610.057373,835.093018 1610.057373,813.314514 1610.057373,790.335632 
	C1602.749878,790.335632 1595.847290,790.335632 1586.959961,790.335449 
z"/>
<path fill="#FBFBFC" opacity="1.000000" stroke="none" 
	d="
M981.309204,804.009521 
	C981.314697,795.687805 981.141418,788.357971 981.371826,781.040771 
	C981.654724,772.054993 985.261414,768.158325 994.217163,768.095520 
	C1022.846985,767.894775 1051.479858,767.908508 1080.109985,768.084778 
	C1089.422119,768.142090 1093.579346,772.248047 1093.644409,781.604980 
	C1093.843262,810.234863 1093.846558,838.867859 1093.635742,867.497559 
	C1093.571167,876.262207 1089.426392,880.262512 1080.557495,880.318665 
	C1051.927368,880.499878 1023.294800,880.496704 994.664490,880.334534 
	C984.919067,880.279358 981.468811,876.761108 981.378235,866.929810 
	C981.188293,846.290405 981.313599,825.648071 981.309204,804.009521 
M1056.692139,790.287720 
	C1048.032104,790.287659 1039.371338,790.216125 1030.712280,790.307617 
	C1021.879578,790.400940 1012.998901,789.867004 1004.408142,790.652466 
	C1002.668945,809.385254 1003.322693,850.325562 1005.390625,857.494263 
	C1026.874756,857.494263 1048.416870,857.494263 1069.866211,857.494263 
	C1071.994995,847.399292 1071.662598,798.030029 1069.325684,790.287903 
	C1065.877319,790.287903 1062.235962,790.287903 1056.692139,790.287720 
z"/>
<path fill="#435B86" opacity="1.000000" stroke="none" 
	d="
M1183.700317,847.732056 
	C1183.700195,828.458252 1183.700195,810.157593 1183.700195,792.032288 
	C1191.387939,789.920105 1239.041138,789.573303 1250.187500,791.499390 
	C1250.187500,813.166992 1250.187500,834.948975 1250.187500,857.313232 
	C1228.258057,857.313232 1206.753174,857.313232 1184.393188,857.313232 
	C1184.159790,854.412781 1183.930054,851.559021 1183.700317,847.732056 
z"/>
<path fill="#435B86" opacity="1.000000" stroke="none" 
	d="
M1363.652344,847.739380 
	C1363.652344,828.466980 1363.652344,810.168640 1363.652344,792.052856 
	C1371.321899,789.924011 1418.889038,789.564331 1430.139404,791.492676 
	C1430.139404,813.163086 1430.139404,834.945679 1430.139404,857.311340 
	C1408.221191,857.311340 1386.718140,857.311340 1364.352295,857.311340 
	C1364.116699,854.416565 1363.884521,851.565063 1363.652344,847.739380 
z"/>
<path fill="#435A86" opacity="1.000000" stroke="none" 
	d="
M1587.952271,790.335571 
	C1595.847290,790.335632 1602.749878,790.335632 1610.057373,790.335632 
	C1610.057373,813.314514 1610.057373,835.093018 1610.057373,857.373169 
	C1587.935913,857.373169 1566.438477,857.373169 1544.242188,857.373169 
	C1544.242188,835.256104 1544.242188,813.469849 1544.242188,790.335449 
	C1558.533081,790.335449 1572.746460,790.335449 1587.952271,790.335571 
z"/>
<path fill="#455D87" opacity="1.000000" stroke="none" 
	d="
M1057.643433,790.287842 
	C1062.235962,790.287903 1065.877319,790.287903 1069.325684,790.287903 
	C1071.662598,798.030029 1071.994995,847.399292 1069.866211,857.494263 
	C1048.416870,857.494263 1026.874756,857.494263 1005.390625,857.494263 
	C1003.322693,850.325562 1002.668945,809.385254 1004.408142,790.652466 
	C1012.998901,789.867004 1021.879578,790.400940 1030.712280,790.307617 
	C1039.371338,790.216125 1048.032104,790.287659 1057.643433,790.287842 
z"/>
</svg>