<svg version="1.1" id="Layer_1" xmlns="http://www.w3.org/2000/svg" xmlns:xlink="http://www.w3.org/1999/xlink" x="0px" y="0px"
	 width="100%" viewBox="0 0 2560 2560" enable-background="new 0 0 2560 2560" xml:space="preserve">
<path fill="#000000" opacity="1.000000" stroke="none" 
	d="
M2562.000000,976.000000 
	C2562.000000,1505.333252 2562.000000,2033.666504 2562.000000,2562.000000 
	C2135.333496,2562.000000 1708.666992,2562.000000 1282.000488,2562.000000 
	C855.333923,2562.000000 428.667328,2562.000000 2.000556,2562.000000 
	C2.000371,1708.667114 2.000371,855.334106 2.000185,2.000900 
	C855.332764,2.000600 1708.665527,2.000600 2561.999023,2.000300 
	C2562.000000,326.333344 2562.000000,650.666687 2562.000000,976.000000 
z"/>
<path fill="#405884" opacity="1.000000" stroke="none" 
	d="
M726.677002,1635.297485 
	C716.664856,1624.559448 707.180115,1614.296021 697.594849,1604.127319 
	C628.402161,1530.722778 565.597229,1452.464355 516.044434,1364.223633 
	C472.641754,1286.934814 442.324615,1204.797729 426.622864,1117.491821 
	C420.912781,1085.742188 417.334045,1053.699341 415.437714,1021.415955 
	C413.364471,986.120972 412.762695,950.835266 414.546234,915.593994 
	C416.479767,877.389099 421.177551,839.409851 428.159454,801.753723 
	C438.018097,748.582336 452.698029,696.770386 471.778534,646.181091 
	C489.568024,599.014832 511.425873,553.833374 536.873230,510.317413 
	C566.901123,458.968658 601.646851,411.043640 641.055908,366.572388 
	C694.788330,305.937866 755.756226,253.509232 823.529175,209.135864 
	C889.054504,166.234100 959.049316,132.371872 1033.420044,107.760757 
	C1093.968140,87.723877 1155.989624,74.452927 1219.434082,67.493919 
	C1263.553955,62.654568 1307.799805,60.835728 1352.036255,62.580292 
	C1435.219604,65.860786 1516.666748,79.735901 1596.045898,105.454224 
	C1672.553223,130.242065 1744.519409,164.417038 1811.855103,208.261353 
	C1852.373169,234.643875 1890.394165,264.300446 1926.371826,296.691559 
	C1984.901489,349.386932 2035.139404,409.058075 2078.071777,474.913940 
	C2128.642334,552.486084 2166.114502,636.000488 2190.743896,725.325317 
	C2206.186768,781.332458 2216.108887,838.203125 2220.490479,896.134094 
	C2223.079102,930.360962 2224.827637,964.631531 2223.475830,998.882446 
	C2220.589600,1072.012085 2209.104980,1143.745850 2186.681396,1213.642090 
	C2173.520752,1254.664795 2157.354980,1294.411011 2137.825195,1332.717163 
	C2106.252930,1394.643677 2067.775146,1452.152710 2024.188599,1506.258667 
	C1998.501465,1538.145020 1971.556396,1568.920166 1943.746094,1598.992065 
	C1912.511841,1632.766479 1879.833862,1665.104858 1847.052002,1697.311401 
	C1815.967285,1727.850586 1783.531860,1757.013794 1751.741455,1786.836304 
	C1728.684814,1808.465576 1705.789795,1830.267700 1682.678101,1851.837769 
	C1660.791382,1872.264404 1638.692383,1892.463379 1616.737061,1912.817017 
	C1609.658447,1919.379028 1602.683716,1926.056030 1595.763306,1932.785034 
	C1587.409912,1940.907104 1578.999634,1948.972290 1570.621460,1957.062622 
	C1544.737061,1982.057495 1518.863525,2007.092773 1493.805786,2032.908081 
	C1451.857666,2076.124512 1410.636108,2120.041504 1371.559204,2165.912354 
	C1369.867554,2167.897949 1367.666626,2169.591309 1367.694336,2172.697998 
	C1369.306152,2175.002930 1371.818115,2174.183594 1373.986572,2174.283691 
	C1377.312988,2174.437500 1380.651367,2174.334961 1383.984741,2174.334961 
	C1618.317993,2174.334961 1852.651367,2174.318604 2086.984619,2174.351318 
	C2123.344482,2174.356445 2155.000000,2186.403564 2180.242920,2212.930420 
	C2201.163086,2234.914551 2212.606934,2261.211182 2214.453857,2291.839111 
	C2216.979980,2333.730469 2202.018799,2368.241455 2170.778809,2395.361816 
	C2149.599609,2413.748047 2124.561768,2424.303955 2095.964844,2424.305908 
	C1573.631592,2424.341797 1051.298340,2424.338623 528.965088,2424.316406 
	C501.102570,2424.315430 476.947906,2413.850342 455.610016,2396.734863 
	C432.980194,2378.583252 419.022430,2354.766602 412.759430,2326.534424 
	C410.357666,2315.707764 412.286835,2304.583740 411.614929,2293.627197 
	C410.274567,2271.770264 416.926514,2252.056396 428.353821,2234.015137 
	C449.740631,2200.250244 480.261444,2180.415527 520.290527,2175.579346 
	C529.597046,2174.455078 538.870544,2174.338379 548.185425,2174.338379 
	C783.852051,2174.334717 1019.518677,2174.339844 1255.185303,2174.303467 
	C1259.812012,2174.302979 1264.501831,2174.937256 1269.283569,2173.590820 
	C1269.918579,2169.543701 1266.429321,2167.694580 1264.498413,2165.461914 
	C1244.045044,2141.814697 1223.359375,2118.378174 1202.052368,2095.479004 
	C1179.141113,2070.854980 1155.876099,2046.597534 1132.192017,2022.715210 
	C1103.589111,1993.873047 1074.793823,1965.227661 1045.487793,1937.109375 
	C1018.359497,1911.080200 990.847778,1885.445923 963.272766,1859.888428 
	C940.828247,1839.086182 917.905945,1818.799927 895.446716,1798.013550 
	C876.885742,1780.834961 858.798035,1763.146240 840.313904,1745.883423 
	C801.848572,1709.959351 764.266113,1673.132568 726.677002,1635.297485 
z"/>
<path fill="#000000" opacity="1.000000" stroke="none" 
	d="
M1809.700684,1545.701660 
	C1770.109985,1579.114014 1728.422241,1608.224487 1683.694214,1633.003418 
	C1613.199707,1672.056641 1538.295654,1698.827393 1459.235352,1714.067383 
	C1423.256348,1721.002686 1386.960327,1725.084961 1350.307251,1726.612793 
	C1337.335083,1727.153564 1324.370850,1727.833740 1311.408691,1727.599854 
	C1269.449463,1726.842773 1227.754883,1723.183350 1186.392334,1715.830444 
	C1136.062744,1706.883545 1087.124634,1693.066895 1039.684814,1674.094116 
	C974.366333,1647.971436 913.722534,1613.610229 857.978760,1570.579590 
	C827.858643,1547.328979 799.567749,1522.071899 773.260254,1494.647217 
	C725.047974,1444.386963 684.324951,1388.635498 651.346924,1327.215210 
	C618.374146,1265.805054 594.202942,1201.167480 579.245544,1133.107666 
	C571.382141,1097.326904 566.076538,1061.192993 563.468628,1024.591309 
	C560.882812,988.299194 560.441772,951.971985 562.695679,915.778259 
	C565.364685,872.918823 572.483337,830.569580 582.888672,788.806946 
	C608.029236,687.903259 652.077087,596.062744 714.783813,513.200073 
	C733.064209,489.043823 753.066406,466.335846 774.068115,444.431946 
	C822.556274,393.861084 877.079163,351.008179 937.475769,315.737732 
	C986.502808,287.106934 1038.127319,264.175537 1092.444824,247.229355 
	C1135.162598,233.902130 1178.631226,224.302002 1222.928955,218.529037 
	C1243.359131,215.866547 1263.914307,214.159622 1284.568848,213.424728 
	C1296.530396,212.999161 1308.489014,212.221710 1320.464966,212.353241 
	C1375.520508,212.957916 1429.983154,218.743561 1483.758911,230.827835 
	C1547.797485,245.218369 1608.969604,267.477264 1667.092285,297.880554 
	C1726.088501,328.740784 1780.271240,366.505890 1829.285522,411.745667 
	C1874.024414,453.039276 1913.854004,498.477295 1947.712769,549.051636 
	C1982.692261,601.299988 2010.881592,656.994263 2032.002808,716.300964 
	C2051.752686,771.756287 2064.958496,828.714417 2071.308838,887.142761 
	C2075.660156,927.181335 2077.924805,967.453308 2075.562744,1007.752747 
	C2070.196777,1099.304565 2049.924561,1187.333618 2013.138428,1271.544922 
	C1982.219116,1342.325684 1941.162598,1406.623535 1890.929565,1465.080444 
	C1866.176880,1493.885498 1839.073853,1520.467163 1809.700684,1545.701660 
z"/>
<path fill="#405883" opacity="1.000000" stroke="none" 
	d="
M930.001160,1263.665527 
	C918.671387,1263.656738 908.338440,1263.789917 898.011963,1263.589355 
	C891.146057,1263.456055 890.729187,1262.872803 890.375916,1256.109131 
	C890.237061,1253.449951 890.327942,1250.778564 890.327881,1248.112671 
	C890.326721,1070.499146 890.311157,892.885742 890.351624,715.272278 
	C890.355591,698.063171 888.590027,699.704041 905.876160,699.701965 
	C1173.462646,699.669861 1441.049194,699.667847 1708.635742,699.706543 
	C1725.998413,699.709045 1724.299561,697.862854 1724.303589,715.075745 
	C1724.345337,893.022461 1724.338623,1070.969116 1724.313354,1248.915894 
	C1724.311157,1265.072388 1725.530151,1263.636108 1709.930054,1263.644531 
	C1628.954346,1263.688232 1547.978516,1263.665527 1467.002808,1263.662720 
	C1464.337158,1263.662720 1461.667725,1263.532715 1459.006592,1263.632812 
	C1454.427368,1263.805054 1452.196411,1261.778809 1452.362305,1257.115234 
	C1452.457031,1254.453613 1452.325928,1251.784668 1452.325684,1249.119019 
	C1452.321777,1198.800781 1452.366821,1148.482544 1452.307129,1098.164307 
	C1452.263184,1061.146240 1441.142090,1027.939941 1416.630981,999.954468 
	C1388.468140,967.799683 1353.146851,951.036987 1309.893433,949.408020 
	C1244.773071,946.955505 1180.795166,994.277466 1165.316772,1062.570801 
	C1162.805176,1073.652466 1161.656860,1084.868530 1161.663208,1096.228271 
	C1161.691284,1147.213013 1161.678833,1198.197754 1161.676758,1249.182495 
	C1161.676758,1251.848145 1161.546265,1254.516968 1161.637451,1257.178711 
	C1161.798462,1261.884155 1159.467529,1263.798340 1154.930298,1263.637207 
	C1151.935791,1263.530762 1148.933350,1263.662964 1145.934448,1263.663086 
	C1074.289917,1263.666016 1002.645325,1263.665405 930.001160,1263.665527 
z"/>
<path fill="#405883" opacity="1.000000" stroke="none" 
	d="
M1056.000244,1284.348267 
	C1290.626221,1284.348389 1524.252075,1284.331299 1757.878052,1284.384155 
	C1774.597046,1284.387939 1771.570435,1282.240967 1776.949097,1298.266968 
	C1786.907227,1327.937744 1796.539429,1357.718140 1806.268311,1387.465576 
	C1807.286743,1390.579834 1809.047852,1393.594849 1808.062744,1397.170898 
	C1804.667969,1399.082520 1800.925659,1398.281860 1797.338623,1398.282227 
	C1470.728882,1398.322144 1144.119141,1398.320801 817.509460,1398.312012 
	C804.113770,1398.311646 804.067261,1398.251221 808.170410,1385.905518 
	C818.253418,1355.567017 828.315186,1325.221313 838.529053,1294.926880 
	C842.444458,1283.313721 841.239319,1284.375000 853.035645,1284.368286 
	C920.357117,1284.329956 987.678650,1284.348755 1056.000244,1284.348267 
z"/>
<path fill="#405883" opacity="1.000000" stroke="none" 
	d="
M1184.747070,1263.217651 
	C1181.585693,1260.431763 1182.372803,1256.981323 1182.369751,1253.726929 
	C1182.319702,1200.087402 1181.695312,1146.438354 1182.487061,1092.810425 
	C1183.651733,1013.935608 1253.042969,960.095764 1326.166748,971.245056 
	C1375.237427,978.726929 1416.871460,1014.890015 1428.884033,1067.523438 
	C1430.579834,1074.953003 1431.669556,1082.560425 1431.668823,1090.254150 
	C1431.663696,1144.893188 1431.678467,1199.532349 1431.649170,1254.171387 
	C1431.647705,1256.818970 1431.291260,1259.466187 1430.648193,1262.766113 
	C1415.578247,1262.471802 1400.943848,1263.048096 1386.319092,1263.035767 
	C1319.448853,1262.979492 1252.578613,1262.950073 1184.747070,1263.217651 
z"/>
<path fill="#3F5783" opacity="1.000000" stroke="none" 
	d="
M1140.000244,609.674377 
	C1345.268311,609.674500 1549.536499,609.661011 1753.804565,609.698181 
	C1771.769165,609.701477 1769.532227,608.029114 1769.666870,625.932190 
	C1769.779663,640.926453 1769.776978,655.923340 1769.636963,670.917236 
	C1769.561035,679.027527 1769.086914,679.351562 1761.187744,679.642639 
	C1758.858154,679.728455 1756.523071,679.672058 1754.190552,679.672058 
	C1456.618896,679.672852 1159.047241,679.682373 861.475586,679.648315 
	C844.209656,679.646362 845.753357,681.473877 845.677734,664.334900 
	C845.608643,648.673584 845.567017,633.010437 845.740906,617.350647 
	C845.819458,610.275696 846.225708,610.066589 853.093384,609.731506 
	C856.085754,609.585388 859.090210,609.676147 862.089172,609.676086 
	C954.392822,609.674255 1046.696411,609.674438 1140.000244,609.674377 
z"/>
<path fill="#405783" opacity="1.000000" stroke="none" 
	d="
M1561.997437,589.672729 
	C1379.201538,589.672729 1197.404907,589.672729 1016.156799,589.672729 
	C1013.964783,585.876831 1016.278015,584.308289 1017.556152,582.588379 
	C1031.851685,563.351624 1046.284058,544.216064 1060.491577,524.914917 
	C1063.359131,521.019348 1066.678345,519.198669 1071.448120,519.635864 
	C1073.760132,519.847778 1076.108276,519.660217 1078.440063,519.660217 
	C1231.007080,519.659546 1383.574097,519.659485 1536.141113,519.661133 
	C1538.805908,519.661133 1541.476562,519.797852 1544.134277,519.665527 
	C1547.791870,519.483337 1550.356079,520.912659 1552.562500,523.885254 
	C1567.643188,544.202026 1582.855835,564.420898 1597.988892,584.698914 
	C1598.555664,585.458252 1598.741333,586.502075 1599.312134,587.934082 
	C1593.346680,591.137085 1587.013550,589.303467 1580.981689,589.606873 
	C1575.000732,589.907776 1568.992920,589.672729 1561.997437,589.672729 
z"/>
<path fill="#3042A3" opacity="1.000000" stroke="none" 
	d="
M1184.689697,1263.748047 
	C1188.645020,1261.883423 1193.662842,1262.012817 1198.658936,1262.012207 
	C1270.988037,1262.002075 1343.317139,1261.989380 1415.646240,1262.046997 
	C1419.957397,1262.050415 1424.268066,1262.644409 1429.387695,1263.191162 
	C1427.361084,1264.755493 1424.320435,1264.419556 1421.346313,1264.420288 
	C1344.755005,1264.439331 1268.163574,1264.436157 1191.572266,1264.418091 
	C1189.579468,1264.417603 1187.586670,1264.209595 1184.689697,1263.748047 
z"/>
<path fill="#010102" opacity="1.000000" stroke="none" 
	d="
M1174.999756,879.671387 
	C1164.233643,877.840454 1161.817505,875.313904 1161.739624,865.094666 
	C1161.564575,842.103516 1161.670654,819.110168 1161.671265,796.117737 
	C1161.671387,791.452759 1161.484619,786.773438 1161.780518,782.125977 
	C1162.340332,773.333313 1165.546753,769.817383 1174.098999,769.756897 
	C1202.754883,769.554077 1231.413330,769.576904 1260.069702,769.732422 
	C1268.376953,769.777466 1272.011108,773.512024 1272.223267,782.186340 
	C1272.524658,794.508423 1272.323242,806.843018 1272.326538,819.172241 
	C1272.330688,834.167358 1272.410156,849.163086 1272.295654,864.157349 
	C1272.202881,876.303528 1268.900391,879.630371 1256.869263,879.662964 
	C1229.878296,879.736084 1202.887085,879.683105 1174.999756,879.671387 
z"/>
<path fill="#010102" opacity="1.000000" stroke="none" 
	d="
M1341.654785,820.000183 
	C1341.659180,807.338745 1341.535645,795.675415 1341.704956,784.016296 
	C1341.865234,772.969910 1345.116699,769.714844 1356.063965,769.679565 
	C1383.384766,769.591370 1410.706543,769.588013 1438.027344,769.679810 
	C1448.887207,769.716248 1452.228271,773.037048 1452.282593,784.143616 
	C1452.414673,811.131042 1452.409302,838.119934 1452.281494,865.107361 
	C1452.230103,875.963257 1448.616211,879.602417 1437.953857,879.645691 
	C1410.632935,879.756470 1383.311279,879.756958 1355.990356,879.646240 
	C1345.383179,879.603271 1341.895142,876.052002 1341.728394,864.979797 
	C1341.507568,850.322876 1341.661743,835.660278 1341.654785,820.000183 
z"/>
<path fill="#010203" opacity="1.000000" stroke="none" 
	d="
M1065.859619,879.700500 
	C1043.919556,879.700317 1022.955688,879.701172 1001.991882,879.698608 
	C999.662598,879.698303 997.327332,879.782715 995.005127,879.648987 
	C985.711975,879.113831 982.456665,875.986328 982.347900,866.718079 
	C982.164429,851.080444 982.273010,835.439392 982.270691,819.799744 
	C982.268921,807.487671 982.174377,795.174255 982.328857,782.864014 
	C982.450500,773.175415 985.311646,769.823364 994.586243,769.752014 
	C1023.201660,769.531799 1051.820679,769.546692 1080.436523,769.745056 
	C1089.214355,769.805908 1092.216797,773.386841 1092.278687,783.387207 
	C1092.432983,808.343201 1092.338379,833.300720 1092.338745,858.257629 
	C1092.338745,861.252319 1092.467041,864.258118 1092.259155,867.239502 
	C1091.673462,875.639038 1088.067749,879.255981 1079.811768,879.637329 
	C1075.494751,879.836670 1071.161621,879.690552 1065.859619,879.700500 
z"/>
<path fill="#010102" opacity="1.000000" stroke="none" 
	d="
M1576.000244,769.639404 
	C1590.652832,769.643555 1604.306519,769.537903 1617.957520,769.686462 
	C1628.926514,769.805847 1632.193359,772.959778 1632.264526,784.159546 
	C1632.436157,811.130493 1632.433960,838.104004 1632.263916,865.074951 
	C1632.195923,875.868103 1628.520630,879.558960 1617.803589,879.621582 
	C1590.166504,879.783081 1562.527466,879.765320 1534.890137,879.616455 
	C1525.935059,879.568176 1521.850586,875.775879 1521.780884,866.945374 
	C1521.558105,838.643311 1521.539673,810.336914 1521.791260,782.035339 
	C1521.870728,773.089661 1525.761475,769.796692 1535.041748,769.693481 
	C1548.359741,769.545349 1561.680542,769.645264 1576.000244,769.639404 
z"/>
<path fill="#3E5681" opacity="1.000000" stroke="none" 
	d="
M1251.679443,822.007263 
	C1251.670776,832.641724 1251.797485,842.281860 1251.608765,851.915833 
	C1251.469604,859.012451 1251.012573,859.610229 1244.386475,859.671143 
	C1226.110107,859.839233 1207.830566,859.646240 1189.553711,859.781921 
	C1184.587769,859.818787 1182.284546,858.073486 1182.324463,852.854065 
	C1182.467041,834.245056 1182.449951,815.633789 1182.321045,797.024536 
	C1182.287476,792.163696 1183.801392,789.626709 1189.124512,789.668091 
	C1207.733276,789.812866 1226.344482,789.810486 1244.953491,789.672913 
	C1250.309448,789.633301 1251.774414,792.304871 1251.686401,797.083679 
	C1251.539551,805.056519 1251.667236,813.034485 1251.679443,822.007263 
z"/>
<path fill="#3E5681" opacity="1.000000" stroke="none" 
	d="
M1396.002075,789.668884 
	C1405.974487,789.678711 1414.951904,789.544617 1423.921997,789.744263 
	C1431.029419,789.902466 1431.528442,790.274658 1431.587769,797.049988 
	C1431.750610,815.661621 1431.547852,834.276367 1431.690552,852.888367 
	C1431.730835,858.145264 1429.343384,859.815125 1424.418091,859.780212 
	C1406.138184,859.650635 1387.856201,859.649719 1369.576294,859.781128 
	C1364.649658,859.816528 1362.267578,858.154297 1362.309937,852.893433 
	C1362.462402,833.949280 1362.437866,815.002869 1362.341431,796.057983 
	C1362.317017,791.265869 1364.616089,789.640015 1369.079102,789.690918 
	C1377.719482,789.789429 1386.362183,789.687683 1396.002075,789.668884 
z"/>
<path fill="#3E5681" opacity="1.000000" stroke="none" 
	d="
M1059.646484,789.679443 
	C1062.261841,789.707214 1063.924561,789.789124 1065.584473,789.749146 
	C1069.707886,789.649902 1071.628662,791.579956 1071.617920,795.746216 
	C1071.568237,815.022827 1071.574585,834.299744 1071.609009,853.576416 
	C1071.616211,857.629761 1069.942261,859.715881 1065.686157,859.704529 
	C1046.741943,859.654053 1027.796631,859.599915 1008.853455,859.755493 
	C1003.281006,859.801208 1002.289978,856.747253 1002.318054,852.153442 
	C1002.403259,838.194641 1002.127686,824.230591 1002.417419,810.277405 
	C1002.552551,803.773438 999.540161,795.678467 1004.410706,791.174316 
	C1008.788818,787.125549 1016.544067,789.847595 1022.798157,789.737976 
	C1034.759644,789.528381 1046.727417,789.677734 1059.646484,789.679443 
z"/>
<path fill="#3E5681" opacity="1.000000" stroke="none" 
	d="
M1610.474854,791.379272 
	C1612.400757,812.357544 1611.310913,832.637695 1611.679321,852.902405 
	C1611.775146,858.181091 1609.306641,859.814697 1604.395630,859.780212 
	C1586.106689,859.651794 1567.815674,859.644897 1549.526855,859.781494 
	C1544.543091,859.818726 1542.269409,858.042908 1542.310791,852.831787 
	C1542.461304,833.878174 1542.410034,814.922668 1542.361938,795.968079 
	C1542.351685,791.933655 1543.895508,789.667236 1548.177124,789.755554 
	C1568.747803,790.179626 1589.349609,788.471008 1610.474854,791.379272 
z"/>
</svg>