<svg version="1.1" id="Layer_1" xmlns="http://www.w3.org/2000/svg" xmlns:xlink="http://www.w3.org/1999/xlink" x="0px" y="0px"
	 width="100%" viewBox="0 0 2560 2560" enable-background="new 0 0 2560 2560" xml:space="preserve">
<path fill="#FFFFFF" opacity="1.000000" stroke="none" 
	d="
M1418.000000,2562.000000 
	C945.333313,2562.000000 473.666656,2562.000000 2.000000,2562.000000 
	C2.000000,1708.666626 2.000000,855.333313 2.000000,2.000000 
	C855.333313,2.000000 1708.666626,2.000000 2562.000000,2.000000 
	C2562.000000,855.333313 2562.000000,1708.666626 2562.000000,2562.000000 
	C2181.000000,2562.000000 1800.000000,2562.000000 1418.000000,2562.000000 
z"/>
<path fill="#415984" opacity="1.000000" stroke="none" 
	d="
M1760.099854,1544.215820 
	C1823.296875,1553.807861 1884.143555,1523.474121 1911.617310,1469.073975 
	C1921.827148,1448.857788 1931.481812,1428.359131 1941.820923,1408.210571 
	C1974.367798,1344.783936 2007.119141,1281.462280 2039.790283,1218.099487 
	C2039.942871,1217.803345 2040.070312,1217.494141 2040.227173,1217.200317 
	C2044.754395,1208.723877 2044.793457,1208.655029 2053.566895,1213.621216 
	C2071.311279,1223.665405 2083.877441,1238.337402 2091.997070,1256.943115 
	C2098.989502,1272.965698 2101.609131,1290.191406 2105.497070,1307.030029 
	C2144.156006,1474.467529 2182.629639,1641.947632 2221.160645,1809.414551 
	C2230.569580,1850.307861 2240.023438,1891.190674 2249.359131,1932.100708 
	C2250.066895,1935.201782 2251.620361,1938.407715 2249.443115,1942.859619 
	C1730.973755,1699.149536 1212.619263,1455.493408 692.897583,1211.194580 
	C704.668396,1204.564819 715.748230,1201.370850 727.420959,1200.269531 
	C733.378479,1199.707642 739.404663,1199.729492 745.399780,1199.728882 
	C999.025757,1199.704712 1252.651733,1199.748779 1506.277588,1199.521240 
	C1514.359253,1199.514038 1518.551758,1201.917114 1522.246338,1209.164795 
	C1565.366089,1293.750732 1608.982544,1378.083496 1652.150269,1462.645264 
	C1666.166504,1490.101807 1685.403442,1512.371704 1712.338501,1527.665405 
	C1726.963257,1535.969238 1742.606079,1541.457275 1760.099854,1544.215820 
z"/>
<path fill="#415984" opacity="1.000000" stroke="none" 
	d="
M1847.161377,1387.240723 
	C1840.763550,1399.770752 1834.734009,1411.652832 1828.701538,1423.533325 
	C1812.387695,1455.661621 1765.781006,1458.572876 1745.544067,1428.755615 
	C1739.906738,1420.449463 1735.715210,1411.365356 1731.173706,1402.473145 
	C1650.706055,1244.921753 1569.966553,1087.508301 1489.923462,929.741394 
	C1435.989014,823.435364 1438.363647,716.652344 1494.775146,612.623962 
	C1545.334961,519.386230 1625.239502,462.541962 1729.702759,445.178375 
	C1850.958862,425.023468 1954.244141,462.785095 2036.946777,553.655823 
	C2085.549561,607.058716 2112.311279,671.048889 2119.368896,742.841858 
	C2125.381104,803.998413 2114.199951,862.449768 2087.226074,917.562805 
	C2065.699219,961.546387 2043.167358,1005.040894 2020.846313,1048.631958 
	C1963.143188,1161.320923 1905.309692,1273.942993 1847.161377,1387.240723 
z"/>
<path fill="#415984" opacity="1.000000" stroke="none" 
	d="
M1009.582642,1753.520264 
	C1045.367310,1677.133179 1080.798462,1601.412476 1116.341675,1525.744385 
	C1121.800659,1514.123047 1119.503296,1514.993164 1131.145874,1520.485352 
	C1317.610229,1608.445557 1504.048462,1696.460815 1690.462036,1784.528442 
	C1693.673462,1786.045654 1697.404541,1786.842651 1700.565430,1790.737915 
	C1695.842896,1795.218384 1691.172363,1799.759521 1686.385986,1804.174805 
	C1576.663208,1905.390991 1466.926392,2006.592041 1357.195801,2107.799805 
	C1342.744507,2121.128662 1328.194214,2134.353760 1313.942993,2147.893799 
	C1309.815308,2151.815186 1305.654663,2153.650146 1299.839478,2153.644775 
	C1143.882324,2153.504150 987.925110,2153.537109 831.967896,2153.494873 
	C829.420166,2153.494141 826.690063,2154.253174 823.073669,2151.669922 
	C884.950806,2019.244263 947.186340,1886.760254 1009.582642,1753.520264 
z"/>
<path fill="#415984" opacity="1.000000" stroke="none" 
	d="
M894.681763,1774.726074 
	C836.792480,1898.496704 779.187134,2021.569458 721.832947,2144.759277 
	C718.708008,2151.471191 715.027466,2153.784424 707.600586,2153.727295 
	C659.951782,2153.360840 612.298767,2153.575439 564.647278,2153.516357 
	C532.654785,2153.476562 506.248596,2141.162354 486.289734,2116.201904 
	C466.406921,2091.336914 461.709015,2062.840332 468.709442,2032.232788 
	C486.749420,1953.357422 504.977051,1874.524902 523.077515,1795.663452 
	C560.842407,1631.126099 598.578125,1466.582153 636.310120,1302.037354 
	C639.297424,1289.010010 639.233582,1289.012207 651.667969,1294.811890 
	C776.023804,1352.814941 900.382263,1410.812622 1024.739136,1468.813477 
	C1025.040894,1468.954102 1025.325073,1469.133057 1025.628418,1469.269775 
	C1036.916504,1474.353760 1035.518921,1473.662964 1030.906372,1483.525757 
	C985.614685,1580.370117 940.315735,1677.211060 894.681763,1774.726074 
z"/>
<path fill="#415985" opacity="1.000000" stroke="none" 
	d="
M1757.836670,1867.833496 
	C1768.176880,1858.341553 1778.246826,1849.584839 1787.723511,1840.227295 
	C1792.901733,1835.114380 1797.069458,1834.214111 1804.045410,1837.631104 
	C1837.541138,1854.038696 1871.399292,1869.706543 1905.128418,1885.637329 
	C2025.288696,1942.390625 2145.449219,1999.143799 2265.609131,2055.897461 
	C2275.253418,2060.452393 2275.252686,2060.453857 2274.222656,2070.602539 
	C2270.585693,2106.437500 2241.469238,2139.416016 2204.250000,2149.851807 
	C2193.898193,2152.754395 2183.335449,2153.581787 2172.607178,2153.578369 
	C1993.330933,2153.520264 1814.054688,2153.536865 1634.778442,2153.537354 
	C1576.796875,2153.537598 1518.815430,2153.552979 1460.833862,2153.501221 
	C1457.324219,2153.498047 1453.673584,2154.142334 1448.275269,2152.209473 
	C1551.875366,2056.762451 1654.734863,1962.688965 1757.836670,1867.833496 
z"/>
<path fill="#FEFEFE" opacity="1.000000" stroke="none" 
	d="
M1644.125732,849.797424 
	C1605.871948,769.045410 1636.423096,677.351990 1715.338257,637.630432 
	C1807.232910,591.375732 1918.013550,643.845276 1939.927734,745.821533 
	C1957.481323,827.505493 1909.746216,904.595520 1835.422241,928.770020 
	C1761.182373,952.917236 1680.945190,921.700989 1644.125732,849.797424 
z"/>
</svg>