<svg version="1.1" id="Layer_1" xmlns="http://www.w3.org/2000/svg" xmlns:xlink="http://www.w3.org/1999/xlink" x="0px" y="0px"
	 width="100%" viewBox="0 0 2560 2560" enable-background="new 0 0 2560 2560" xml:space="preserve">
<path fill="#FFFFFF" opacity="1.000000" stroke="none" 
	d="
M1508.000000,2562.000000 
	C1005.333313,2562.000000 503.666656,2562.000000 2.000000,2562.000000 
	C2.000000,1708.666626 2.000000,855.333313 2.000000,2.000000 
	C855.333313,2.000000 1708.666626,2.000000 2562.000000,2.000000 
	C2562.000000,855.333313 2562.000000,1708.666626 2562.000000,2562.000000 
	C2211.000000,2562.000000 1860.000000,2562.000000 1508.000000,2562.000000 
z"/>
<path fill="#415985" opacity="1.000000" stroke="none" 
	d="
M248.444489,1528.444336 
	C253.703171,1493.663818 258.867950,1459.759766 263.964691,1425.845581 
	C270.991394,1379.088867 277.957886,1332.322998 284.971130,1285.564331 
	C286.502045,1275.357300 288.134644,1265.165649 289.697113,1254.963379 
	C295.362610,1217.970459 329.968689,1187.372803 367.243866,1186.427124 
	C369.908722,1186.359375 372.576508,1186.401001 375.242920,1186.401001 
	C532.896301,1186.399780 690.549683,1186.399414 848.203064,1186.399170 
	C848.869690,1186.399170 849.549255,1186.485107 850.200867,1186.385986 
	C857.023438,1185.349854 860.948303,1187.911621 863.911621,1194.543579 
	C871.788818,1212.173218 880.559875,1229.403320 888.973389,1246.793213 
	C902.318970,1274.377197 915.682068,1301.952881 928.976807,1329.561279 
	C930.250488,1332.206177 932.185425,1334.657349 932.050537,1339.190063 
	C920.097107,1340.259277 907.976257,1339.522339 895.909424,1339.654297 
	C883.578613,1339.789062 871.245178,1339.684082 858.912903,1339.684082 
	C846.913879,1339.684082 834.914917,1339.684082 822.915894,1339.684082 
	C810.583618,1339.684082 798.251282,1339.684082 785.919006,1339.684082 
	C773.586731,1339.684082 761.254395,1339.684082 748.922119,1339.684082 
	C736.589844,1339.684082 724.257507,1339.684082 711.925232,1339.684082 
	C699.592957,1339.684082 687.260620,1339.684082 674.928345,1339.684082 
	C662.596069,1339.684082 650.263733,1339.684082 637.931458,1339.684082 
	C625.932495,1339.684082 613.933472,1339.684082 601.934509,1339.684082 
	C589.602234,1339.684082 577.269897,1339.684082 564.937622,1339.684082 
	C552.729309,1339.684082 540.520996,1339.684082 527.392151,1339.684082 
	C528.515198,1344.588013 531.258118,1347.080688 533.421082,1349.791138 
	C589.961182,1420.645264 646.547668,1491.462402 703.123047,1562.288574 
	C741.186523,1609.939697 779.244690,1657.595093 817.306396,1705.247681 
	C819.386292,1707.851562 821.449707,1710.469238 823.566284,1713.043213 
	C828.755066,1719.353882 828.798950,1719.384521 834.887268,1714.258301 
	C856.047424,1696.441406 877.185303,1678.598145 898.326660,1660.758911 
	C941.373535,1624.435669 984.412720,1588.103516 1027.478516,1551.802979 
	C1029.195435,1550.355591 1030.634399,1548.340210 1033.254883,1548.253662 
	C1035.767334,1550.206421 1036.491943,1553.254150 1037.772217,1555.906738 
	C1057.752808,1597.300903 1077.721680,1638.700928 1097.556396,1680.165039 
	C1102.206055,1689.885010 1102.981079,1688.447510 1094.385620,1695.727295 
	C1040.722778,1741.175171 987.010559,1786.564941 933.372864,1832.042603 
	C924.102844,1839.902344 924.272949,1837.962524 931.633545,1847.186523 
	C1024.966064,1964.147705 1118.329468,2081.084473 1211.518555,2198.159668 
	C1216.053101,2203.856445 1220.550293,2206.385254 1228.136108,2206.377197 
	C1452.783569,2206.138428 1677.431396,2206.185059 1902.079102,2206.166016 
	C1905.266113,2206.165771 1908.453247,2205.899902 1912.499146,2205.719971 
	C1910.773438,2200.950195 1907.856079,2198.201660 1905.465942,2195.209717 
	C1835.368530,2107.459961 1765.226318,2019.745972 1695.090698,1932.026733 
	C1625.163208,1844.568237 1555.312256,1757.048462 1485.151245,1669.777832 
	C1479.939819,1663.295776 1479.729736,1658.542725 1483.297363,1651.255127 
	C1507.313354,1602.195312 1530.999634,1552.970703 1554.303345,1503.568481 
	C1558.199097,1495.309570 1562.605347,1492.135986 1572.115356,1492.152466 
	C1762.765381,1492.482544 1953.416016,1492.399536 2144.066650,1492.399048 
	C2157.759766,1492.399048 2157.989746,1492.363403 2155.987549,1478.846069 
	C2149.401367,1434.381836 2142.587402,1389.951294 2136.013672,1345.485229 
	C2135.420166,1341.472656 2134.058594,1339.375244 2129.787842,1339.660645 
	C2127.133301,1339.838013 2124.457275,1339.684448 2121.790771,1339.684448 
	C1963.137451,1339.683960 1804.484131,1339.689453 1645.830811,1339.649292 
	C1642.247681,1339.648315 1638.581909,1340.317749 1635.049683,1339.032593 
	C1633.941406,1335.995728 1635.979736,1333.850586 1637.081909,1331.569702 
	C1659.250610,1285.683350 1681.577271,1239.872925 1703.571167,1193.903198 
	C1706.251343,1188.301147 1709.430908,1186.264893 1715.652100,1186.271362 
	C1876.638428,1186.436035 2037.624878,1186.336426 2198.611328,1186.455078 
	C2239.655762,1186.485352 2271.776123,1215.538208 2277.831299,1256.787476 
	C2286.826172,1318.059692 2296.196289,1379.276611 2305.351807,1440.525269 
	C2313.670898,1496.178833 2321.859863,1551.851562 2330.211426,1607.500244 
	C2339.204590,1667.427002 2348.376709,1727.326904 2357.365967,1787.254272 
	C2366.355713,1847.183838 2375.170898,1907.139404 2384.146973,1967.071045 
	C2391.791260,2018.110596 2399.574463,2069.129150 2407.261230,2120.162354 
	C2414.749512,2169.880371 2422.241699,2219.597900 2429.642334,2269.329102 
	C2437.108643,2319.502441 2392.264404,2359.583252 2350.235596,2359.551025 
	C1705.623657,2359.055908 1061.011108,2359.206299 416.398834,2359.206543 
	C350.071075,2359.206543 283.727722,2358.338623 217.421448,2359.531982 
	C177.704346,2360.246826 140.961777,2327.961670 136.585724,2287.148438 
	C135.644608,2278.371094 137.347305,2269.846924 138.609467,2261.317871 
	C147.724182,2199.725098 157.000732,2138.155762 166.278687,2076.587158 
	C176.647995,2007.776245 187.133743,1938.982788 197.455124,1870.164551 
	C206.492813,1809.905640 215.312500,1749.613892 224.341095,1689.353516 
	C231.988174,1638.313843 239.799805,1587.298828 247.522186,1536.270508 
	C247.871109,1533.965088 248.057892,1531.634888 248.444489,1528.444336 
z"/>
<path fill="#415985" opacity="1.000000" stroke="none" 
	d="
M874.607117,1099.358154 
	C850.265320,1048.881226 826.748840,998.828003 802.083008,949.347595 
	C786.650757,918.389954 776.185608,885.916016 768.088379,852.517761 
	C754.846924,797.901428 747.559631,742.514099 748.036926,686.270996 
	C748.626831,616.764587 762.860168,549.958557 790.770447,486.367401 
	C842.930176,367.525635 927.977234,279.772736 1044.005981,222.070816 
	C1106.207397,191.137650 1172.277710,173.390884 1241.493164,168.567642 
	C1456.106323,153.612427 1643.457153,258.661346 1743.854370,425.121887 
	C1782.241089,488.767822 1805.335815,557.718323 1814.382812,631.538696 
	C1822.748779,699.800903 1817.576538,767.190857 1803.020386,834.089294 
	C1800.049438,847.743408 1796.598389,861.304810 1792.969116,874.801575 
	C1785.949219,900.907288 1776.170532,925.892151 1764.377319,950.309570 
	C1627.483276,1233.746338 1490.874146,1517.320923 1354.340698,1800.931641 
	C1346.384888,1817.457642 1335.149536,1830.500000 1319.080566,1839.171265 
	C1280.875000,1859.788208 1234.483521,1844.674194 1214.709839,1804.821777 
	C1198.425659,1772.002686 1182.808105,1738.852661 1166.901611,1705.846191 
	C1069.582153,1503.906006 972.264709,1301.964844 874.607117,1099.358154 
z"/>
<path fill="#FFFFFF" opacity="1.000000" stroke="none" 
	d="
M874.517456,2021.499512 
	C923.406677,2082.671143 971.844727,2143.294922 1020.062988,2203.643799 
	C1019.618652,2204.643555 1019.522278,2204.974854 1019.336121,2205.244629 
	C1019.171448,2205.483398 1018.906738,2205.828125 1018.685974,2205.828369 
	C781.720398,2205.961670 544.754883,2206.069824 307.789337,2206.174072 
	C306.126770,2206.174805 304.449829,2206.181885 302.399719,2204.661865 
	C340.113739,1953.562744 377.882996,1702.095825 416.050751,1447.975952 
	C493.721832,1544.776367 569.589905,1640.007324 645.651489,1735.081665 
	C721.848145,1830.324951 797.932617,1925.657837 874.517456,2021.499512 
z"/>
<path fill="#FEFEFE" opacity="1.000000" stroke="none" 
	d="
M2199.597900,1768.522217 
	C2203.007080,1791.457520 2206.613770,1813.481445 2209.485352,1835.600708 
	C2211.433594,1850.606689 2213.285156,1849.409912 2198.137207,1849.412720 
	C2077.143066,1849.434937 1956.148682,1849.369873 1835.154907,1849.567627 
	C1828.164307,1849.578979 1823.552979,1847.560425 1819.157593,1842.043335 
	C1768.901855,1778.962646 1718.405884,1716.073364 1667.990356,1653.119873 
	C1666.579468,1651.358276 1665.349609,1649.451782 1663.586426,1646.984619 
	C1667.867676,1644.893433 1671.834229,1645.721191 1675.583862,1645.719482 
	C1789.911621,1645.667969 1904.239502,1645.677368 2018.567261,1645.677368 
	C2068.564941,1645.677368 2118.562500,1645.677490 2168.560059,1645.677612 
	C2170.560059,1645.677612 2172.573486,1645.829590 2174.557129,1645.649780 
	C2179.335449,1645.216675 2181.596191,1646.742920 2182.271484,1652.059692 
	C2184.536377,1669.892334 2187.408447,1687.648315 2190.080078,1705.428711 
	C2193.196533,1726.172363 2196.346680,1746.910767 2199.597900,1768.522217 
z"/>
<path fill="#FEFEFE" opacity="1.000000" stroke="none" 
	d="
M2094.926270,2187.073242 
	C2045.829834,2125.716553 1997.182129,2064.917969 1948.054443,2003.519775 
	C1951.594238,2001.656860 1954.265625,2002.242188 1956.754272,2002.241089 
	C2046.086304,2002.201172 2135.418213,2002.203125 2224.750244,2002.213013 
	C2234.726562,2002.214111 2234.581299,2002.273804 2236.092529,2012.469849 
	C2243.756348,2064.182129 2251.506104,2115.881592 2259.215332,2167.587402 
	C2260.786621,2178.126709 2262.449951,2188.655518 2263.809082,2199.222656 
	C2264.662354,2205.854736 2264.429199,2206.064453 2257.867676,2206.149658 
	C2247.202881,2206.288330 2236.535156,2206.191650 2225.868652,2206.191650 
	C2190.202637,2206.192139 2154.534668,2206.014404 2118.871826,2206.354248 
	C2112.461182,2206.415283 2108.142822,2204.653076 2104.661621,2199.398926 
	C2101.911133,2195.247559 2098.495117,2191.537842 2094.926270,2187.073242 
z"/>
<path fill="#FEFEFE" opacity="1.000000" stroke="none" 
	d="
M915.194946,802.792969 
	C907.375427,765.061157 901.313477,727.919556 900.951782,690.132629 
	C900.682983,662.052063 904.277954,634.293640 910.562683,606.945007 
	C942.815674,466.593933 1051.519165,360.150024 1192.725708,329.835724 
	C1263.629883,314.613983 1334.105591,315.715576 1403.029053,338.096863 
	C1535.261963,381.036469 1620.229614,469.835999 1654.940063,605.133484 
	C1663.837891,639.816284 1667.149414,675.438049 1665.264526,711.204529 
	C1663.580444,743.161926 1657.889038,774.683472 1651.143066,805.963135 
	C1649.038574,815.720520 1646.521484,825.389648 1644.149414,835.088501 
	C1639.944702,852.280945 1633.864746,868.704529 1626.149292,884.716980 
	C1513.960571,1117.549072 1401.988525,1350.485840 1289.959717,1583.394897 
	C1288.109253,1587.241943 1286.192139,1591.056885 1283.674561,1596.169434 
	C1281.824707,1592.751587 1280.559814,1590.630127 1279.493164,1588.413330 
	C1164.546143,1349.515381 1049.590942,1110.621338 934.728333,871.682800 
	C926.301331,854.152893 922.763123,835.032043 918.082031,816.315430 
	C917.032837,812.120239 916.300781,807.845703 915.194946,802.792969 
z"/>
<path fill="#415985" opacity="1.000000" stroke="none" 
	d="
M1463.112549,949.144775 
	C1404.151001,991.584778 1338.919189,1011.682129 1267.183960,1007.605469 
	C1182.652222,1002.801758 1111.855835,967.909912 1055.207520,905.016602 
	C1013.929565,859.188049 988.749573,805.331482 980.630188,744.294800 
	C968.644531,654.194214 992.331055,573.720459 1051.141602,504.471588 
	C1103.223999,443.144989 1170.024780,406.631226 1250.008179,398.705444 
	C1359.835571,387.822327 1450.774536,426.585907 1521.360596,511.409576 
	C1555.971191,553.001343 1577.488281,601.279846 1585.263916,654.791504 
	C1600.278809,758.122986 1569.784912,846.824524 1496.419678,920.903992 
	C1486.321777,931.100159 1475.252441,940.212585 1463.112549,949.144775 
z"/>
<path fill="#FEFEFE" opacity="1.000000" stroke="none" 
	d="
M1218.848877,841.303345 
	C1162.554688,814.727966 1127.688599,760.082886 1130.588379,693.789490 
	C1134.076416,614.048462 1199.049194,551.531677 1278.988892,549.581726 
	C1354.379761,547.742676 1416.714966,596.626465 1432.952393,670.321472 
	C1451.354370,753.840393 1397.225464,835.999939 1313.284424,852.235596 
	C1280.857910,858.507446 1249.691284,854.810730 1218.848877,841.303345 
z"/>
</svg>