<svg version="1.1" id="Layer_1" xmlns="http://www.w3.org/2000/svg" xmlns:xlink="http://www.w3.org/1999/xlink" x="0px" y="0px"
	 width="100%" viewBox="0 0 1024 1024" enable-background="new 0 0 1024 1024" xml:space="preserve">
<path fill="#000000" opacity="1.000000" stroke="none" 
	d="
M484.884735,640.901672 
	C459.824188,662.124878 435.053925,683.141541 410.181030,704.036011 
	C407.601349,706.203003 407.084534,707.685669 409.339783,710.495972 
	C444.901245,754.810242 480.389343,799.183533 515.812378,843.608582 
	C517.705444,845.982666 519.762390,846.726562 522.646057,846.724976 
	C610.139771,846.676758 697.633484,846.687561 785.127197,846.677795 
	C786.265320,846.677673 787.403442,846.533264 789.040344,846.422424 
	C788.091614,843.523376 786.103455,841.727600 784.516296,839.742188 
	C727.082581,767.894226 669.662842,696.034973 612.057373,624.324951 
	C608.676453,620.116211 608.032043,616.785156 610.926453,612.403015 
	C613.079529,609.143188 613.716003,604.977478 616.861145,601.908203 
	C617.658142,602.526062 618.544373,602.878845 618.871094,603.517761 
	C622.394165,610.407288 628.359253,610.853271 635.268555,610.835083 
	C706.262939,610.647949 777.258057,610.730164 848.252930,610.695740 
	C850.512451,610.694702 852.908325,611.319702 855.476135,609.655029 
	C854.219666,601.126221 852.970764,592.448669 851.658081,583.780823 
	C849.094360,566.852417 846.333862,549.951355 844.023071,532.988831 
	C843.441833,528.722168 841.473633,527.835693 837.776855,527.884949 
	C828.779236,528.004883 819.778748,527.904602 810.779419,527.906128 
	C760.449707,527.914673 710.120056,527.934692 659.790344,527.912903 
	C657.542053,527.911926 655.096191,528.538086 652.787476,526.330322 
	C654.553650,521.113892 657.288269,516.186646 659.963928,511.265747 
	C661.229492,508.938141 663.828552,509.735657 665.907227,509.734222 
	C711.237305,509.703186 756.567383,509.713013 801.897461,509.714630 
	C817.396362,509.715179 832.895325,509.696259 848.394165,509.722443 
	C856.314270,509.735809 859.224670,512.321472 860.383972,519.982910 
	C866.275818,558.920837 872.261292,597.844666 878.091370,636.791809 
	C883.625916,673.764771 888.934265,710.771484 894.480347,747.742676 
	C899.583130,781.758606 904.858032,815.748840 910.082520,849.746460 
	C911.823608,861.076538 908.289124,865.031616 896.090149,865.032593 
	C678.939087,865.050171 461.788025,865.053345 244.636948,865.058289 
	C228.971420,865.058594 213.305756,865.085266 197.640411,865.029968 
	C187.556107,864.994385 184.082291,860.909790 185.544846,851.073364 
	C192.974197,801.106445 200.346771,751.130920 207.834457,701.172729 
	C214.336502,657.790710 220.971024,614.428528 227.535873,571.055847 
	C230.196274,553.479187 232.732162,535.882935 235.519470,518.326538 
	C236.598358,511.531067 239.161453,509.724701 246.581818,509.721863 
	C289.745392,509.705292 332.908936,509.714874 376.072510,509.714447 
	C393.737915,509.714264 411.406036,509.879822 429.066864,509.594421 
	C433.653625,509.520325 436.226166,511.003845 437.705933,515.194702 
	C439.080322,519.086975 441.775635,522.442810 442.837982,527.565674 
	C383.518921,527.565674 324.542969,527.565674 265.919983,527.565674 
	C264.630707,530.562500 266.462952,531.507507 267.397980,532.679504 
	C308.861969,584.651672 350.393311,636.570129 391.793274,688.593140 
	C394.582031,692.097473 396.463226,691.556396 399.414825,689.042175 
	C425.797089,666.568298 452.263916,644.193665 478.712585,621.797791 
	C480.851166,619.986938 483.039429,618.234863 485.672791,616.070679 
	C489.220520,621.044678 491.161011,626.302246 493.373260,631.398438 
	C494.126862,633.134521 492.752686,634.190002 491.625244,635.172302 
	C489.491364,637.031433 487.308319,638.834045 484.884735,640.901672 
M450.970276,791.501831 
	C384.433289,708.329712 317.896332,625.157654 251.169373,541.748047 
	C249.623459,544.060669 249.564453,546.042358 249.281906,547.987122 
	C248.159286,555.713989 246.992172,563.434509 245.814880,571.153259 
	C242.007721,596.114380 238.136307,621.065857 234.388412,646.035828 
	C230.220901,673.801697 226.197281,701.589111 222.046890,729.357544 
	C216.472214,766.655273 210.946350,803.961060 205.092560,841.215210 
	C204.325165,846.098938 205.694916,846.765625 209.994705,846.761414 
	C303.117950,846.670227 396.241302,846.697205 489.364624,846.656982 
	C490.877655,846.656311 492.690887,847.403748 494.157166,845.380676 
	C479.924713,827.623230 465.671143,809.839417 450.970276,791.501831 
M673.571228,671.955994 
	C687.511353,689.400696 701.520752,706.790955 715.328369,724.339905 
	C717.847717,727.541931 720.538391,728.803589 724.609741,728.793396 
	C772.273132,728.674561 819.936951,728.728271 867.600647,728.700684 
	C869.373596,728.699646 871.274475,729.184448 873.215149,727.733765 
	C872.906006,725.122742 872.652771,722.336121 872.237061,719.574036 
	C868.056091,691.791321 863.800720,664.019653 859.681335,636.227844 
	C858.635132,629.169312 858.790894,629.098206 851.775757,629.098083 
	C782.946716,629.096802 714.117676,629.096252 645.288635,629.129883 
	C643.711609,629.130615 641.994202,628.606628 640.117859,630.066284 
	C651.154602,643.888245 662.139160,657.644897 673.571228,671.955994 
M744.639954,760.879639 
	C766.490662,788.192444 788.357971,815.492004 810.162292,842.841797 
	C812.015625,845.166565 813.789368,846.774109 817.113647,846.755432 
	C840.100220,846.626770 863.088684,846.601257 886.074585,846.781982 
	C890.500427,846.816772 891.112366,844.828308 890.563477,841.266907 
	C886.007751,811.708313 881.358704,782.163025 877.059204,752.567078 
	C876.395264,747.997009 874.572510,746.867126 870.346619,746.877991 
	C827.037537,746.988831 783.727966,746.947388 740.418640,746.992493 
	C738.684387,746.994263 736.763611,746.443054 734.702698,748.333435 
	C737.875122,752.335266 741.038452,756.325684 744.639954,760.879639 
z"/>
<path fill="#000000" opacity="1.000000" stroke="none" 
	d="
M405.275452,256.348877 
	C430.352570,211.485992 468.103363,184.487091 518.065857,175.305481 
	C587.758850,162.498001 663.044128,196.468124 693.619812,262.881195 
	C705.855042,289.457306 709.944763,317.442535 707.575378,346.596252 
	C705.130188,376.682495 694.793274,404.038513 681.649597,430.918488 
	C640.161377,515.765320 599.350891,600.943604 558.276855,685.993042 
	C557.697327,687.192932 557.045593,688.360962 556.522156,689.584412 
	C554.916992,693.336121 552.191895,695.309753 548.026855,695.372437 
	C543.681396,695.437866 540.772949,693.439087 538.930115,689.615662 
	C512.602234,634.993530 486.245758,580.385132 459.943054,525.750854 
	C442.384399,489.278992 425.295776,452.573853 407.222961,416.359344 
	C397.555054,396.986755 392.062378,376.658417 388.878265,355.490692 
	C384.630005,327.248932 387.409180,299.733276 397.730988,273.071777 
	C399.891449,267.491241 402.626190,262.133026 405.275452,256.348877 
M427.913025,417.671112 
	C467.678772,500.106659 507.444519,582.542236 547.345886,665.258911 
	C549.793396,663.083740 550.476807,660.629639 551.533813,658.433655 
	C588.015015,582.641113 624.464661,506.833466 660.935547,431.035950 
	C671.745728,408.569092 683.527283,386.619934 687.465332,361.369720 
	C690.922852,339.200012 691.656128,317.306885 685.771545,295.607605 
	C669.986633,237.400909 622.712341,197.126984 562.683960,191.546875 
	C522.164856,187.780289 485.054779,197.665665 453.884277,224.621933 
	C415.060028,258.197174 400.418304,301.179840 406.703796,351.801636 
	C409.570953,374.892853 416.525543,396.577911 427.913025,417.671112 
z"/>
<path fill="#000000" opacity="1.000000" stroke="none" 
	d="
M601.225098,399.276978 
	C561.901794,428.803894 511.055939,423.531525 481.378265,385.993011 
	C461.378296,360.695557 456.979797,331.871857 469.113281,301.741272 
	C480.914154,272.436584 503.113159,254.615143 534.353210,249.788605 
	C580.528809,242.654541 621.617798,271.187256 630.656128,316.667542 
	C637.182251,349.506409 626.629761,377.042389 601.225098,399.276978 
M580.196167,391.714203 
	C606.492432,375.515991 618.786987,348.838013 613.331421,320.577942 
	C606.806946,286.781250 574.581848,263.136841 540.481567,267.027191 
	C497.933136,271.881317 470.540680,314.755890 484.638214,355.158203 
	C498.283997,394.265869 542.025757,411.276642 580.196167,391.714203 
z"/>
</svg>