<svg version="1.1" id="Layer_1" xmlns="http://www.w3.org/2000/svg" xmlns:xlink="http://www.w3.org/1999/xlink" x="0px" y="0px"
	 width="100%" viewBox="0 0 2560 2560" enable-background="new 0 0 2560 2560" xml:space="preserve">
<path fill="#FFFFFF" opacity="1.000000" stroke="none" 
	d="
M1432.000000,2562.000000 
	C954.666687,2562.000000 478.333344,2562.000000 2.000000,2562.000000 
	C2.000000,1708.666626 2.000000,855.333313 2.000000,2.000000 
	C855.333313,2.000000 1708.666626,2.000000 2562.000000,2.000000 
	C2562.000000,855.333313 2562.000000,1708.666626 2562.000000,2562.000000 
	C2185.666748,2562.000000 1809.333374,2562.000000 1432.000000,2562.000000 
z"/>
<path fill="#415884" opacity="1.000000" stroke="none" 
	d="
M1250.000000,2543.402344 
	C1181.008423,2543.401123 1113.016724,2543.469482 1045.025391,2543.360107 
	C1021.401855,2543.322266 999.496887,2537.343994 980.610779,2522.591553 
	C964.117737,2509.708252 954.024902,2492.992188 951.728821,2471.947266 
	C947.068481,2429.231934 942.464294,2386.510254 937.808716,2343.794434 
	C932.756165,2297.436279 927.625671,2251.086426 922.615051,2204.723877 
	C918.284424,2164.652100 914.126038,2124.561523 909.796875,2084.489502 
	C904.788147,2038.127441 899.631897,1991.781250 894.622192,1945.419312 
	C890.292175,1905.347534 886.127563,1865.257812 881.798767,1825.185913 
	C876.826050,1779.153931 871.724182,1733.135986 866.732605,1687.106079 
	C862.459167,1647.698486 858.282715,1608.280396 854.026123,1568.870972 
	C849.590759,1527.807373 845.078674,1486.751831 840.659424,1445.686523 
	C836.346741,1405.612427 832.151978,1365.525757 827.826172,1325.453125 
	C823.500610,1285.382568 819.054688,1245.324951 814.702637,1205.257202 
	C810.494324,1166.512329 806.439941,1127.750488 802.058044,1089.025391 
	C801.340210,1082.681519 802.742188,1078.895142 808.556885,1075.223755 
	C899.279358,1017.943115 989.831604,960.392578 1080.336670,902.768616 
	C1085.371216,899.563232 1090.369019,898.341492 1096.260742,898.343445 
	C1391.557495,898.441833 1686.854370,898.434570 1982.151123,898.422241 
	C1997.619263,898.421570 2012.818604,899.945312 2026.970581,906.738708 
	C2053.308838,919.381958 2067.765869,941.115295 2073.918701,969.002930 
	C2077.112061,983.477295 2077.109863,998.132874 2075.525391,1012.772766 
	C2067.854004,1083.638428 2060.016846,1154.485962 2052.354248,1225.352417 
	C2046.016357,1283.967896 2039.911377,1342.608398 2033.573364,1401.223877 
	C2025.910767,1472.089966 2018.047607,1542.934692 2010.390869,1613.801392 
	C2004.022095,1672.748169 1997.871704,1731.718628 1991.541992,1790.669678 
	C1983.576782,1864.854370 1975.526123,1939.030029 1967.514893,2013.209717 
	C1960.183350,2081.097412 1952.859985,2148.986084 1945.524658,2216.873291 
	C1938.225098,2284.429443 1930.922729,2351.984863 1923.604370,2419.539062 
	C1921.738892,2436.758545 1920.050415,2454.002441 1917.853516,2471.180420 
	C1914.043945,2500.969971 1896.729492,2520.793701 1870.479004,2533.547852 
	C1857.108398,2540.044189 1842.725708,2542.789795 1827.927612,2543.360840 
	C1823.601074,2543.528076 1819.263062,2543.402344 1814.930298,2543.402344 
	C1626.953491,2543.403076 1438.976807,2543.402832 1250.000000,2543.402344 
z"/>
<path fill="#415984" opacity="1.000000" stroke="none" 
	d="
M843.212769,655.238770 
	C1172.947632,445.862640 1502.079834,236.889221 1831.215820,27.921902 
	C1833.464355,26.494257 1835.664551,24.933195 1838.063110,23.810062 
	C1843.901489,21.076105 1848.130127,22.088343 1852.146729,27.138353 
	C1853.798828,29.215559 1855.124756,31.556280 1856.555786,33.804672 
	C1895.199219,94.523865 1933.841919,155.243576 1972.472412,215.971039 
	C1980.748657,228.981445 1980.013428,232.401627 1966.848267,240.761810 
	C1827.043701,329.540344 1687.224854,418.296143 1547.409546,507.057373 
	C1244.146851,699.582336 940.883972,892.106995 637.621155,1084.631592 
	C636.496094,1085.345825 635.382751,1086.079712 634.242737,1086.769531 
	C624.123169,1092.892456 620.044800,1092.080933 613.727783,1082.185547 
	C589.881470,1044.830811 566.113586,1007.426025 542.321960,970.036377 
	C527.116882,946.140930 511.920868,922.239746 496.723328,898.339478 
	C495.650574,896.652405 494.548462,894.981323 493.545746,893.253113 
	C488.366821,884.327087 489.331360,879.872559 498.230103,874.165894 
	C519.267151,860.675171 540.398987,847.332092 561.502625,833.945312 
	C655.203247,774.507751 748.907410,715.075745 843.212769,655.238770 
z"/>
<path fill="#425A85" opacity="1.000000" stroke="none" 
	d="
M1213.087158,245.144119 
	C1254.481689,218.870956 1295.271973,193.000702 1336.062256,167.130341 
	C1338.031372,165.881485 1340.061646,164.717834 1341.953247,163.361008 
	C1344.640869,161.433273 1346.666504,161.623016 1348.529297,164.584564 
	C1358.962524,181.171478 1369.477661,197.706879 1379.819946,214.031281 
	C1377.224854,217.487411 1374.076904,218.807053 1371.296875,220.571960 
	C1205.368530,325.910797 1039.422729,431.222015 873.476013,536.531799 
	C862.716431,543.359863 862.698425,543.350769 855.921936,532.666016 
	C848.428833,520.851318 840.930603,509.039764 833.479370,497.198700 
	C828.509033,489.300110 828.515259,489.232910 836.156006,484.375977 
	C865.112305,465.969788 894.087708,447.593750 923.057922,429.209564 
	C1019.532532,367.987976 1116.007935,306.767761 1213.087158,245.144119 
z"/>
<path fill="#FDFDFD" opacity="1.000000" stroke="none" 
	d="
M1690.820068,1483.999756 
	C1690.820190,1398.025635 1690.807617,1313.051392 1690.852051,1228.077271 
	C1690.854614,1223.093872 1690.910278,1218.050903 1691.635376,1213.137939 
	C1694.688843,1192.452637 1711.123535,1179.356079 1733.397827,1179.557861 
	C1755.573364,1179.758789 1771.602051,1193.331665 1774.135986,1214.267822 
	C1774.734497,1219.212891 1774.947754,1224.232422 1774.948364,1229.217773 
	C1774.985474,1515.130859 1774.985107,1801.043945 1774.951538,2086.957031 
	C1774.951050,2091.944336 1774.812134,2096.969238 1774.209839,2101.912354 
	C1771.683228,2122.651123 1755.418335,2136.278564 1733.287598,2136.429443 
	C1710.930786,2136.582275 1694.547241,2123.458496 1691.729004,2102.757080 
	C1690.924194,2096.845459 1690.855591,2090.801025 1690.854370,2084.817383 
	C1690.812378,1884.878174 1690.819580,1684.939087 1690.820068,1483.999756 
z"/>
<path fill="#FDFDFE" opacity="1.000000" stroke="none" 
	d="
M1417.276855,2133.413086 
	C1400.524780,2125.832764 1393.362305,2112.862793 1392.661743,2095.790527 
	C1392.525146,2092.462646 1392.587036,2089.125977 1392.586548,2085.793213 
	C1392.550659,1800.495239 1392.516357,1515.197266 1392.493042,1229.899292 
	C1392.492554,1223.577637 1392.310913,1217.268921 1393.619141,1210.985840 
	C1396.087524,1199.131836 1402.480103,1190.148071 1413.143188,1184.604858 
	C1437.976440,1171.695679 1476.097290,1182.703979 1476.354004,1220.454346 
	C1476.376709,1223.786987 1476.410278,1227.119751 1476.410645,1230.452393 
	C1476.446777,1515.417114 1476.480957,1800.381714 1476.504395,2085.346436 
	C1476.504883,2090.011230 1476.569336,2094.688477 1476.269043,2099.338379 
	C1474.960205,2119.612793 1459.941772,2134.741699 1439.665283,2136.270020 
	C1432.297974,2136.825928 1425.002563,2136.483643 1417.276855,2133.413086 
z"/>
<path fill="#FEFEFE" opacity="1.000000" stroke="none" 
	d="
M1094.301270,1232.107300 
	C1094.304321,1228.127563 1094.354858,1225.127686 1094.303101,1222.129761 
	C1093.775879,1191.649048 1118.733521,1174.463257 1147.743774,1180.846191 
	C1164.724121,1184.582275 1176.145752,1197.926758 1177.858765,1215.242554 
	C1178.283936,1219.540161 1178.223999,1223.895264 1178.224243,1228.223999 
	C1178.239624,1514.788574 1178.238281,1801.353149 1178.234497,2087.917725 
	C1178.234497,2091.249756 1178.285889,2094.586182 1178.138550,2097.912842 
	C1177.201416,2119.073242 1161.757324,2134.926025 1140.776367,2136.323730 
	C1116.685303,2137.928711 1099.518555,2125.546631 1095.270142,2103.709473 
	C1094.109253,2097.742676 1094.318726,2091.768066 1094.318237,2085.784424 
	C1094.298950,1801.552368 1094.301392,1517.320190 1094.301270,1232.107300 
z"/>
</svg>