<svg version="1.1" id="Layer_1" xmlns="http://www.w3.org/2000/svg" xmlns:xlink="http://www.w3.org/1999/xlink" x="0px" y="0px"
	 width="100%" viewBox="0 0 2560 2560" enable-background="new 0 0 2560 2560" xml:space="preserve">
<path fill="#FFFFFF" opacity="1.000000" stroke="none" 
	d="
M1500.000000,2562.000000 
	C1000.000000,2562.000000 501.000000,2562.000000 2.000000,2562.000000 
	C2.000000,1708.666626 2.000000,855.333313 2.000000,2.000000 
	C855.333313,2.000000 1708.666626,2.000000 2562.000000,2.000000 
	C2562.000000,855.333313 2562.000000,1708.666626 2562.000000,2562.000000 
	C2208.333252,2562.000000 1854.666626,2562.000000 1500.000000,2562.000000 
z"/>
<path fill="#415985" opacity="1.000000" stroke="none" 
	d="
M386.000000,2076.072266 
	C364.001160,2076.068604 342.995392,2075.724121 322.005310,2076.150635 
	C297.884247,2076.640137 274.711090,2058.358154 275.391388,2029.581543 
	C275.777283,2013.259033 274.938385,1996.900757 275.563080,1980.593628 
	C275.881317,1972.286377 273.718079,1967.078857 266.001282,1963.130127 
	C256.222809,1958.126221 247.679291,1951.014648 239.455582,1943.672729 
	C220.629196,1926.865356 211.124725,1905.395142 208.052567,1880.722290 
	C206.609253,1869.130981 206.010910,1857.498779 206.010727,1845.814575 
	C206.009155,1743.153931 205.632385,1640.492065 206.023468,1537.833008 
	C206.299026,1465.499878 209.866089,1393.248779 213.372681,1321.009277 
	C214.471451,1298.373047 215.521988,1275.734497 216.533981,1253.094238 
	C216.923447,1244.380981 216.846634,1244.270264 208.034561,1244.262695 
	C161.370499,1244.222778 114.706314,1244.287231 68.042343,1244.212402 
	C53.417145,1244.188965 44.023487,1237.220947 40.496590,1224.326904 
	C39.507675,1220.711304 39.663025,1217.061157 39.852707,1213.403564 
	C42.527905,1161.817871 45.163857,1110.230103 47.988007,1058.652588 
	C48.295670,1053.033691 49.336617,1047.383667 50.676865,1041.904541 
	C58.003738,1011.951538 78.716576,994.559509 112.004990,990.372314 
	C127.907219,988.372009 143.912521,987.940308 159.914154,988.453430 
	C177.742950,989.025269 188.240021,1000.136597 187.516327,1018.197144 
	C186.262070,1049.498047 184.544586,1080.780640 182.996719,1112.069702 
	C182.272217,1126.714600 181.622971,1141.365356 180.656097,1155.994751 
	C180.352707,1160.585205 181.386017,1162.825317 186.467712,1162.703247 
	C196.461441,1162.463135 206.467590,1162.490112 216.463089,1162.686890 
	C220.959045,1162.775269 221.928131,1160.646729 222.187210,1156.633301 
	C224.655914,1118.392090 227.216003,1080.156250 229.912781,1041.930420 
	C233.641357,989.078796 238.167435,936.294861 243.340759,883.562927 
	C247.570084,840.453064 252.146683,797.384766 258.045776,754.471069 
	C263.670685,713.551941 269.077576,672.546875 280.049744,632.627136 
	C288.606934,601.493713 302.255035,572.677246 322.905731,547.541992 
	C353.348969,510.487762 392.354065,491.943939 440.569733,491.980377 
	C671.556885,492.154907 902.544189,492.056519 1133.531494,492.055603 
	C1174.862549,492.055450 1216.196777,492.379364 1257.523926,491.979126 
	C1312.468262,491.447113 1354.152954,515.421936 1385.043213,559.763184 
	C1406.574463,590.670349 1418.469849,625.540771 1425.897827,662.076538 
	C1434.998291,706.838684 1440.822754,752.106201 1446.169678,797.443298 
	C1452.141602,848.078430 1456.869019,898.835693 1461.280029,949.622314 
	C1464.162964,982.817078 1466.630127,1016.048035 1469.251221,1049.265381 
	C1469.737549,1055.427124 1469.663086,1055.405151 1462.766113,1056.184814 
	C1441.921875,1058.541504 1420.999878,1060.218506 1400.302124,1063.832397 
	C1388.779785,1065.844360 1377.586426,1068.995361 1366.482910,1072.553345 
	C1363.968994,1073.358887 1361.587036,1074.760254 1358.218506,1073.803955 
	C1357.741211,1067.749268 1357.049927,1061.488647 1356.783569,1055.210083 
	C1354.452026,1000.262817 1350.559326,945.418274 1345.915039,890.626099 
	C1341.046387,833.185181 1334.901001,775.875732 1327.923950,718.652588 
	C1327.330078,713.781067 1325.684326,711.261292 1320.486816,711.878784 
	C1318.514893,712.113098 1316.491455,711.913757 1314.491577,711.913757 
	C1005.175293,711.913635 695.859070,711.913452 386.542786,711.914124 
	C373.388794,711.914124 373.618896,711.946716 371.951508,725.198425 
	C366.127991,771.482605 361.016144,817.846619 356.670654,864.287842 
	C353.566528,897.462341 350.738281,930.673035 348.488129,963.914978 
	C343.896118,1031.753540 340.461639,1099.652954 339.893036,1167.666382 
	C339.823395,1175.998779 340.005768,1184.336670 339.762115,1192.662842 
	C339.634613,1197.020508 341.349335,1198.697632 345.598145,1198.417358 
	C348.584686,1198.220459 351.595215,1198.390869 354.595032,1198.391724 
	C640.245911,1198.469971 925.896851,1198.544434 1211.547729,1198.657349 
	C1215.488770,1198.658936 1219.497314,1198.033813 1223.295410,1199.223999 
	C1225.087891,1201.408081 1223.600220,1203.073242 1222.634766,1204.729248 
	C1190.464722,1259.912109 1166.299561,1318.738037 1143.523682,1378.207886 
	C1139.388062,1389.006714 1141.590454,1387.680786 1129.316040,1387.720703 
	C1099.984863,1387.816040 1070.638062,1387.254150 1041.326538,1388.038330 
	C1010.252441,1388.869873 982.459229,1399.688843 959.657349,1420.907104 
	C928.478516,1449.921143 918.126831,1486.782959 923.134766,1528.210205 
	C925.918640,1551.239502 934.122559,1572.748047 944.955383,1593.240234 
	C946.295959,1595.776367 948.741272,1597.944946 948.235535,1601.851685 
	C944.523560,1603.248779 940.554932,1602.637207 936.713928,1602.638672 
	C835.719482,1602.676025 734.725037,1602.653320 633.730591,1602.692749 
	C624.069702,1602.696533 614.411072,1602.963623 604.991638,1605.612427 
	C587.108704,1610.641235 575.319458,1622.034668 570.796265,1639.979614 
	C564.284363,1665.814575 557.813354,1691.694092 552.562805,1717.803467 
	C547.098938,1744.973999 556.748352,1766.972412 579.000549,1783.316772 
	C596.121948,1795.892700 615.782776,1801.742798 636.637329,1803.925415 
	C642.917786,1804.582642 649.283081,1804.607300 655.609985,1804.615356 
	C765.937134,1804.756592 876.264282,1804.843018 986.591492,1804.961792 
	C1000.983032,1804.977173 999.250610,1803.891113 999.266541,1817.994507 
	C999.318909,1864.325317 999.286804,1910.656006 999.285522,1956.986816 
	C999.285461,1959.319946 999.205688,1961.655029 999.276917,1963.985718 
	C999.394287,1967.826294 997.486023,1969.386963 993.777405,1969.250366 
	C991.114685,1969.152100 988.445129,1969.241333 985.778625,1969.241455 
	C825.120789,1969.241943 664.463013,1969.233032 503.805176,1969.256104 
	C488.814789,1969.258179 490.627411,1967.815063 490.553894,1982.715332 
	C490.475037,1998.714111 490.111359,2014.726929 490.628021,2030.709351 
	C491.401428,2054.633057 471.947968,2076.259277 444.988892,2076.082520 
	C425.660095,2075.955811 406.329681,2076.066895 386.000000,2076.072266 
z"/>
<path fill="#415984" opacity="1.000000" stroke="none" 
	d="
M1104.919556,2049.101074 
	C1082.121704,2026.702271 1071.211426,2000.433716 1071.387085,1968.872437 
	C1071.843140,1886.876221 1072.197510,1804.868164 1071.232910,1722.880615 
	C1070.812988,1687.182617 1079.597900,1654.402954 1094.569458,1622.683960 
	C1096.701904,1618.166138 1098.945068,1613.700562 1101.064087,1609.176880 
	C1101.313477,1608.644531 1101.098145,1607.894287 1101.098145,1606.693359 
	C1089.678955,1603.841797 1078.080933,1601.042358 1066.536743,1598.036499 
	C1054.234253,1594.833374 1042.437012,1590.330933 1031.570068,1583.617188 
	C1024.698853,1579.372070 1018.595825,1574.232178 1013.849792,1567.656494 
	C1002.030884,1551.281494 995.664246,1532.626709 994.204468,1512.824585 
	C992.055847,1483.677368 1011.632263,1462.252686 1040.865967,1460.002808 
	C1045.178345,1459.670898 1049.526367,1459.733398 1053.857910,1459.731445 
	C1094.190674,1459.713013 1134.523315,1459.752197 1174.856079,1459.698120 
	C1185.343994,1459.683960 1184.324951,1461.225220 1188.215820,1450.484009 
	C1209.796509,1390.906738 1233.854980,1332.407837 1264.069458,1276.596802 
	C1278.043579,1250.784546 1293.141846,1225.635132 1310.124146,1201.698364 
	C1331.339233,1171.795166 1358.428711,1149.387939 1394.217163,1138.980469 
	C1411.875366,1133.845337 1430.177368,1132.129639 1448.376831,1130.099976 
	C1531.655029,1120.812378 1615.282593,1119.382080 1698.956421,1119.255859 
	C1772.954346,1119.144287 1846.960205,1118.679443 1920.942871,1120.460693 
	C1981.926392,1121.929199 2042.769165,1125.651978 2103.260010,1134.049438 
	C2146.647705,1140.072510 2180.501221,1161.774780 2206.333008,1196.488281 
	C2231.074951,1229.737061 2251.462891,1265.658447 2270.080566,1302.614990 
	C2294.103760,1350.301270 2313.725342,1399.837524 2332.087646,1449.909424 
	C2336.202637,1461.130371 2334.381592,1459.682129 2346.054443,1459.698120 
	C2387.053711,1459.754517 2428.053223,1459.709473 2469.052490,1459.737427 
	C2474.710205,1459.741333 2480.375977,1459.620605 2485.977295,1460.821289 
	C2514.174316,1466.865234 2529.667236,1488.401367 2526.326660,1517.108398 
	C2525.943359,1520.402222 2525.113770,1523.644409 2524.483643,1526.909180 
	C2516.852051,1566.439331 2492.275391,1589.101440 2453.826904,1598.087402 
	C2442.502686,1600.734131 2431.266602,1603.757568 2419.958252,1606.616455 
	C2419.262451,1611.341675 2422.164551,1614.489990 2423.825684,1617.955566 
	C2434.088623,1639.366943 2442.649170,1661.345337 2446.801270,1684.845825 
	C2448.544922,1694.713989 2449.371826,1704.667358 2449.372803,1714.684692 
	C2449.381104,1799.350098 2449.340088,1884.015381 2449.392090,1968.680786 
	C2449.419922,2013.746216 2428.764648,2046.296387 2389.371094,2067.082031 
	C2383.647705,2070.102051 2382.984619,2073.626465 2383.003662,2078.891113 
	C2383.132080,2114.223389 2383.129395,2149.556396 2383.135742,2184.889160 
	C2383.136475,2188.884766 2383.163330,2192.902832 2382.778564,2196.872070 
	C2380.500977,2220.358887 2363.591797,2237.179932 2339.925781,2237.521729 
	C2298.268799,2238.123535 2256.590820,2238.119873 2214.933350,2237.535645 
	C2189.644287,2237.180908 2172.077637,2218.501465 2171.908936,2193.038818 
	C2171.677002,2158.041016 2171.841797,2123.040283 2171.834717,2088.040771 
	C2171.834229,2085.707520 2171.754883,2083.372803 2171.822998,2081.041748 
	C2171.916992,2077.828369 2170.720703,2075.968750 2167.216553,2076.090820 
	C2164.886719,2076.172363 2162.551025,2076.072754 2160.217773,2076.072754 
	C1893.888550,2076.071045 1627.559326,2076.064941 1361.230103,2076.089600 
	C1348.581177,2076.090820 1349.255615,2074.437012 1349.249390,2087.729980 
	C1349.233643,2121.396240 1349.225586,2155.062256 1349.255981,2188.728516 
	C1349.261719,2195.093750 1348.849976,2201.391602 1346.857178,2207.479492 
	C1340.767822,2226.081787 1324.444092,2237.561523 1303.168335,2237.682373 
	C1271.503174,2237.862061 1239.836182,2237.733154 1208.170044,2237.733887 
	C1199.836914,2237.734131 1191.501465,2237.852539 1183.170898,2237.702148 
	C1156.191772,2237.215332 1138.055054,2219.101562 1137.941040,2192.199707 
	C1137.781372,2154.534424 1137.714111,2116.865967 1138.059570,2079.203125 
	C1138.120728,2072.549561 1136.250977,2069.138916 1130.032104,2066.501709 
	C1120.812256,2062.591553 1112.807983,2056.432129 1104.919556,2049.101074 
z"/>
<path fill="#415985" opacity="1.000000" stroke="none" 
	d="
M1510.171875,630.027161 
	C1508.285278,622.776001 1506.509399,616.356262 1504.842773,609.908203 
	C1503.125610,603.265015 1503.454834,602.624451 1509.844360,602.945312 
	C1545.180054,604.719910 1580.488037,603.095337 1615.792480,602.076538 
	C1663.430176,600.701904 1710.995728,597.859497 1758.551758,594.730957 
	C1804.770020,591.690369 1850.908813,587.735657 1897.058472,583.876404 
	C1904.358887,583.265869 1911.647339,582.513367 1918.942749,581.841248 
	C1928.015015,581.005554 1928.248779,580.786804 1925.397461,572.430176 
	C1919.475708,555.075439 1912.520996,538.130127 1904.862061,521.471741 
	C1886.173096,480.822937 1863.702881,442.251465 1840.188232,404.273895 
	C1828.801270,385.883484 1813.310547,372.243225 1792.553467,365.011353 
	C1782.948975,361.665039 1772.965332,361.116425 1763.018433,360.458008 
	C1656.515625,353.408081 1549.894043,352.095917 1443.223755,354.616699 
	C1397.586670,355.695160 1351.977051,357.822937 1306.436523,361.209717 
	C1280.896240,363.109100 1260.648193,374.747070 1245.434082,394.862244 
	C1240.685791,401.140228 1235.833740,403.561981 1228.041260,403.420593 
	C1202.384033,402.955048 1176.713013,403.271362 1151.047485,403.212799 
	C1147.777954,403.205353 1144.437256,403.797699 1141.337769,402.681793 
	C1140.114502,401.308472 1140.730713,400.101288 1141.407349,398.960724 
	C1151.948853,381.190887 1162.324707,363.300568 1175.378662,347.191254 
	C1198.133545,319.110535 1227.516235,304.169556 1263.528687,299.824585 
	C1346.449219,289.820038 1429.698486,288.614075 1513.024048,288.307800 
	C1570.688721,288.095825 1628.354492,288.085510 1685.990479,290.189636 
	C1732.282227,291.879578 1778.475342,294.791229 1824.379761,301.498016 
	C1855.967285,306.113037 1881.168457,321.464783 1901.535156,345.489288 
	C1913.213257,359.264923 1922.828003,374.480560 1932.154053,389.883118 
	C1960.563477,436.803619 1982.699707,486.688019 2001.995728,537.909363 
	C2005.048706,546.013733 2008.399414,554.035583 2010.885254,562.313904 
	C2012.629517,568.122742 2015.613281,569.908386 2021.632568,569.856873 
	C2055.628906,569.566101 2089.628906,569.708191 2123.627686,569.730164 
	C2129.955566,569.734253 2136.237061,569.824707 2142.426270,571.719177 
	C2162.171631,577.762878 2174.032227,595.978516 2171.095459,616.391296 
	C2169.760986,625.665894 2166.874756,634.549500 2163.440918,643.245239 
	C2157.521973,658.234680 2147.039795,668.887146 2132.510010,675.701416 
	C2120.364502,681.397461 2107.402832,684.504456 2094.504395,687.818176 
	C2090.974365,688.725037 2087.419678,689.534485 2083.857422,690.393127 
	C2082.882812,694.768921 2085.618896,697.639038 2087.094482,700.808105 
	C2096.416992,720.830750 2104.255615,741.307678 2106.576660,763.486267 
	C2107.130615,768.779724 2107.526367,774.118225 2107.530762,779.436401 
	C2107.591064,850.100342 2107.551025,920.764404 2107.576172,991.428406 
	C2107.584717,1015.714600 2098.445801,1036.075806 2081.693115,1053.394897 
	C2078.091064,1057.118408 2074.380615,1058.452393 2069.278076,1057.822388 
	C2024.587158,1052.303833 1979.620605,1050.413086 1934.684204,1048.798340 
	C1896.389160,1047.421997 1858.035645,1047.446777 1819.706177,1047.305786 
	C1750.709717,1047.052246 1681.711060,1047.074829 1612.722290,1048.395264 
	C1597.062988,1048.694946 1581.413940,1049.508057 1565.755371,1049.886475 
	C1558.537964,1050.060913 1558.471558,1049.848999 1557.938232,1043.041870 
	C1554.372070,997.529907 1550.830322,952.015991 1547.290894,906.501953 
	C1546.762695,899.709961 1546.787354,899.546997 1554.247314,899.532654 
	C1587.912598,899.467957 1621.578247,899.557312 1655.243530,899.486328 
	C1693.220581,899.406189 1725.481934,885.980164 1751.273926,857.825012 
	C1760.836548,847.386108 1768.097412,835.479065 1772.643921,822.030151 
	C1775.015259,815.015259 1776.289917,807.865356 1774.440308,800.427979 
	C1772.080444,790.937866 1766.072021,785.397522 1756.413574,784.378784 
	C1753.444336,784.065552 1750.419922,784.250854 1747.420776,784.250671 
	C1681.089966,784.245728 1614.759033,784.246704 1548.428223,784.246582 
	C1546.428345,784.246582 1544.427612,784.280762 1542.428589,784.239746 
	C1534.850952,784.084290 1534.847046,784.075806 1533.827148,776.818970 
	C1529.886841,748.778992 1526.131104,720.711426 1521.950562,692.707336 
	C1518.851929,671.951904 1515.185913,651.281921 1510.171875,630.027161 
z"/>
<path fill="#FEFEFE" opacity="1.000000" stroke="none" 
	d="
M332.131134,1507.408447 
	C363.021942,1517.704834 392.106384,1529.924805 417.851349,1548.879272 
	C439.556732,1564.859619 455.142731,1585.822144 465.855835,1610.373413 
	C475.754883,1633.059204 482.735687,1656.615967 485.168121,1681.372559 
	C486.153595,1691.402588 485.908630,1701.352051 482.796112,1711.026733 
	C477.958740,1726.063354 468.088623,1732.582397 452.390106,1730.286499 
	C433.614166,1727.540283 415.291046,1722.523071 396.875610,1718.036865 
	C373.924408,1712.445679 351.081757,1706.462158 328.850403,1698.361084 
	C320.391937,1695.278809 312.182251,1691.662964 304.236023,1687.443115 
	C292.925201,1681.436646 284.945892,1672.361450 279.635590,1660.795288 
	C273.273010,1646.937500 270.908630,1632.211792 270.182098,1617.154785 
	C269.050690,1593.706543 272.228638,1570.647217 276.824097,1547.743652 
	C277.873138,1542.515381 279.670959,1537.486938 282.051544,1532.687012 
	C293.286316,1510.034790 314.716125,1503.180786 332.131134,1507.408447 
z"/>
<path fill="#FEFEFF" opacity="1.000000" stroke="none" 
	d="
M2091.776367,1230.109863 
	C2104.689697,1238.823975 2115.156738,1249.095215 2123.093750,1261.602661 
	C2160.082764,1319.890259 2195.295166,1379.154297 2220.796875,1443.611816 
	C2224.585449,1453.187744 2228.058350,1462.888672 2231.865479,1473.032715 
	C2220.059570,1476.818359 2208.332275,1476.352539 2196.922607,1477.344727 
	C2140.171387,1482.279785 2083.382324,1486.741333 2026.534058,1490.520020 
	C1931.742432,1496.820923 1836.907837,1501.235474 1741.877075,1500.674438 
	C1680.875000,1500.314209 1619.941650,1498.150879 1559.057373,1494.460327 
	C1522.810059,1492.263306 1486.537842,1490.390869 1450.328125,1487.685181 
	C1405.153564,1484.309570 1360.029175,1480.259399 1314.890015,1476.419678 
	C1306.647827,1475.718628 1298.245850,1476.133667 1289.834473,1473.295532 
	C1289.693604,1467.803101 1292.245728,1463.057373 1294.039429,1458.187622 
	C1310.792725,1412.702148 1332.692749,1369.689575 1357.194702,1327.970825 
	C1369.848633,1306.425415 1382.633545,1284.938477 1396.039917,1263.858276 
	C1412.501709,1237.973389 1435.406616,1220.640015 1466.097778,1215.095581 
	C1474.912231,1213.503052 1483.961670,1213.026978 1492.930420,1212.503174 
	C1553.150635,1208.986572 1613.418823,1206.858398 1673.727173,1205.317383 
	C1748.735596,1203.401245 1823.701660,1204.601440 1898.664551,1206.576172 
	C1947.962524,1207.874634 1997.233765,1210.225952 2046.416626,1213.982300 
	C2062.648926,1215.222046 2077.608887,1220.608398 2091.776367,1230.109863 
z"/>
<path fill="#FEFEFE" opacity="1.000000" stroke="none" 
	d="
M1983.999878,1720.235107 
	C1996.659424,1720.235962 2008.320801,1720.108032 2019.978149,1720.268921 
	C2035.724609,1720.486206 2045.331299,1729.925781 2046.239990,1745.671753 
	C2046.790771,1755.216797 2044.589233,1764.204834 2040.788574,1772.836548 
	C2025.573730,1807.391602 1999.925171,1831.487671 1965.847290,1846.918945 
	C1946.158936,1855.834229 1925.393433,1859.917725 1903.769775,1859.908447 
	C1807.827637,1859.867065 1711.884033,1860.224365 1615.944092,1859.756714 
	C1564.179443,1859.504395 1522.708740,1837.944580 1492.453491,1795.707764 
	C1483.859985,1783.710938 1477.407104,1770.556152 1474.905640,1755.791016 
	C1473.784302,1749.172485 1473.478271,1742.573853 1475.654907,1736.035889 
	C1478.932373,1726.191528 1485.053223,1721.153198 1495.298706,1720.376831 
	C1498.944214,1720.100708 1502.623413,1720.239502 1506.287231,1720.239380 
	C1665.191528,1720.234375 1824.095703,1720.235107 1983.999878,1720.235107 
z"/>
<path fill="#FEFEFE" opacity="1.000000" stroke="none" 
	d="
M2112.567383,1786.707520 
	C2130.824463,1749.140625 2160.597900,1725.856689 2198.606689,1712.641235 
	C2232.084717,1701.001099 2266.700439,1694.269165 2302.059814,1691.739502 
	C2313.018066,1690.955566 2324.014648,1691.217651 2334.808594,1694.094482 
	C2349.179688,1697.924683 2358.767090,1706.460205 2362.886475,1721.013672 
	C2368.187500,1739.741089 2371.948975,1758.570190 2368.716064,1778.159790 
	C2364.960205,1800.915527 2352.126709,1816.218750 2330.697021,1824.318604 
	C2310.995361,1831.765381 2290.399902,1835.863037 2269.804443,1839.804810 
	C2228.916260,1847.630127 2187.651855,1853.127930 2146.492920,1859.259888 
	C2138.910889,1860.389526 2131.223389,1860.523193 2123.647949,1858.626587 
	C2110.004639,1855.210815 2102.602539,1846.561401 2101.478271,1832.587769 
	C2100.745117,1823.475830 2102.159912,1814.620605 2105.123047,1806.040771 
	C2107.294678,1799.752686 2109.850098,1793.597046 2112.567383,1786.707520 
z"/>
<path fill="#FEFEFE" opacity="1.000000" stroke="none" 
	d="
M1191.262451,1824.905518 
	C1159.748779,1813.558960 1149.136963,1788.377686 1150.796753,1757.137695 
	C1151.344482,1746.827393 1153.313965,1736.676636 1156.001343,1726.674683 
	C1162.182739,1703.668457 1173.639648,1693.997070 1197.490723,1691.995605 
	C1216.556030,1690.395752 1235.363525,1692.590454 1254.093140,1695.968506 
	C1279.981689,1700.637573 1305.673950,1705.951050 1330.211182,1715.864258 
	C1368.950073,1731.514771 1396.443848,1758.374390 1412.261353,1797.130615 
	C1415.939453,1806.143188 1418.437378,1815.430542 1419.273438,1825.109375 
	C1420.878662,1843.688721 1411.479492,1855.748413 1393.115845,1859.037720 
	C1386.820435,1860.165283 1380.485596,1860.288208 1374.215210,1859.344604 
	C1330.133057,1852.711060 1285.914795,1846.902710 1242.178345,1838.135254 
	C1225.218140,1834.735474 1208.339600,1830.944580 1191.262451,1824.905518 
z"/>
<path fill="#FDFDFE" opacity="1.000000" stroke="none" 
	d="
M1821.606812,863.836426 
	C1832.315918,819.792542 1860.257812,792.684448 1901.251099,778.079529 
	C1929.288452,768.090332 1958.428711,763.038513 1988.020874,760.587280 
	C1997.712646,759.784485 2007.281738,761.129944 2016.564209,764.060730 
	C2024.584839,766.593079 2030.931152,771.522034 2033.958130,779.395813 
	C2040.859863,797.348206 2044.382202,815.842163 2040.337646,835.086975 
	C2036.684937,852.467651 2026.371460,864.121765 2009.675415,870.162964 
	C1987.991211,878.009033 1965.396484,882.128052 1942.787720,885.912903 
	C1914.591187,890.633179 1886.258667,894.539490 1857.995483,898.866333 
	C1853.012573,899.629211 1848.097534,899.724915 1843.115356,898.900574 
	C1826.768677,896.196106 1819.484741,887.134521 1820.540283,870.559998 
	C1820.666382,868.579163 1821.144043,866.620789 1821.606812,863.836426 
z"/>
</svg>